<svg width="800" height="800" viewBox="0 0 800 800" fill="none" xmlns="http://www.w3.org/2000/svg">
<path d="M748.319 306.72C749.439 298.08 737.278 290.88 727.999 290.08C723.678 289.759 719.039 290.4 714.878 288.959C705.919 285.759 702.239 274.08 693.439 270.4C686.878 267.68 679.199 270.08 672.96 273.28C666.56 276.48 660.319 280.48 653.119 280.959C646.878 281.28 640.16 279.041 634.719 282.08C630.719 284.32 628.478 288.959 624.799 291.68C621.119 294.4 616.319 294.88 611.839 295.2C607.36 295.52 602.56 295.52 598.56 297.441C594.399 299.359 591.039 303.68 591.839 308.159L748.319 306.72Z" fill="#F5F5F5"/>
<path d="M346.878 163.841C347.837 156.959 338.237 151.359 330.878 150.72C327.357 150.4 323.837 151.041 320.478 149.759C313.437 147.359 310.557 138.08 303.678 135.2C298.557 132.96 292.478 135.04 287.518 137.441C282.557 140 277.598 143.2 271.837 143.52C266.878 143.841 261.598 142.08 257.437 144.48C254.237 146.241 252.637 149.92 249.598 152.159C246.718 154.241 243.037 154.72 239.357 154.88C235.677 155.041 232.157 155.041 228.798 156.641C225.598 158.08 222.878 161.6 223.518 165.12L346.878 163.841Z" fill="#FAFAFA"/>
<path d="M272.638 118.56C274.238 107.04 258.078 97.7601 245.918 96.6401C240.159 96.1601 234.078 97.1201 228.638 95.2001C216.798 91.0401 211.998 75.6801 200.478 70.8801C191.838 67.2001 181.759 70.4001 173.438 74.7201C164.959 78.8801 156.798 84.3201 147.359 84.8001C139.198 85.2801 130.238 82.2401 123.198 86.2401C117.918 89.2801 115.038 95.36 110.238 99.04C105.438 102.56 99.198 103.36 93.278 103.68C87.358 104 81.118 104 75.678 106.56C70.238 109.12 65.758 114.72 66.878 120.64L272.638 118.56Z" fill="#F5F5F5"/>
<path d="M145.439 541.92C145.439 541.92 133.439 538.08 127.839 565.759C122.239 593.441 121.439 608.8 121.439 608.8C121.439 608.8 119.519 614.72 115.199 612.48C110.719 610.08 103.359 602.08 97.9186 605.441C92.3186 608.959 92.1586 616.32 96.1586 626.08C100.159 635.841 107.999 657.6 108.799 659.52C109.439 661.441 109.119 664.641 105.919 663.52C102.719 662.4 82.0786 649.28 76.3186 659.359C70.7186 669.6 86.2386 694.88 87.8386 697.759C89.4386 700.641 89.2786 702.08 87.9986 703.2C86.7186 704.32 80.3186 699.2 74.2386 695.68C68.1586 692.159 60.6386 689.12 57.7586 695.359C55.0386 701.441 59.3586 722.559 88.4786 750.72L102.719 762.88L120.639 756.8C158.079 741.6 170.079 723.68 169.759 716.959C169.439 710.241 161.279 710.241 154.398 711.2C147.518 712.16 139.518 714.56 138.879 712.96C138.239 711.36 138.559 709.92 141.118 708C143.679 706.08 167.679 688.32 166.079 676.8C164.639 665.28 140.479 669.759 137.118 669.6C133.599 669.441 134.559 666.241 135.998 664.8C137.439 663.2 152.798 646.08 160.159 638.559C167.518 631.041 170.239 624 166.239 618.72C162.398 613.6 152.479 618.4 147.518 618.88C142.559 619.359 143.039 613.12 143.039 613.12C143.039 613.12 147.998 598.72 153.118 570.88C158.239 543.04 145.279 542.24 145.279 542.24" fill="#EBEBEB"/>
<path d="M100.639 766.88C104.479 746.559 111.999 710.4 118.079 679.359C124.319 648.32 129.919 620.159 133.919 599.841C135.839 589.6 137.439 581.441 138.558 575.68C139.039 572.8 139.519 570.72 139.839 569.12C139.999 568.32 140.158 567.841 140.158 567.359C140.319 567.041 140.319 566.72 140.319 566.72C140.319 566.72 140.319 566.88 140.319 567.359C140.319 567.841 140.158 568.32 139.999 569.12C139.678 570.72 139.358 572.8 138.878 575.68C137.919 581.441 136.319 589.6 134.399 599.841C130.559 620.159 124.959 648.32 118.719 679.359C112.479 710.4 104.959 746.559 100.959 766.88" fill="#E0E0E0"/>
<path d="M107.678 616.959C107.678 616.959 107.998 617.28 108.478 618.08C108.958 618.88 109.598 619.841 110.398 621.28C111.998 624 114.238 627.68 116.478 631.841C118.718 636 120.798 639.68 122.238 642.559C122.878 643.841 123.518 644.959 123.998 645.759C124.478 646.559 124.638 646.88 124.638 647.041C124.638 647.041 124.318 646.72 123.838 645.92C123.358 645.12 122.718 644.159 121.918 642.72C120.318 640 118.238 636.32 115.998 632.159C113.758 628 111.678 624.32 110.078 621.441C109.438 620.159 108.798 619.04 108.318 618.24C107.838 617.44 107.678 617.12 107.678 616.959Z" fill="#E0E0E0"/>
<path d="M126.557 646.88C126.397 646.72 133.917 641.92 143.357 636.159C152.637 630.4 160.318 625.92 160.477 626.08C160.637 626.241 153.118 631.041 143.677 636.8C134.237 642.4 126.557 646.88 126.557 646.88Z" fill="#E0E0E0"/>
<path d="M114.717 694.08C114.717 694.08 115.197 693.92 115.997 693.6C116.957 693.28 118.237 692.959 119.677 692.641C122.717 691.841 127.037 690.559 131.517 689.12C136.157 687.68 140.317 686.241 143.197 685.12C144.636 684.641 145.757 684.159 146.717 683.841C147.517 683.52 147.997 683.359 147.997 683.359C147.997 683.359 147.517 683.68 146.717 684C145.917 684.32 144.797 684.8 143.197 685.441C140.317 686.559 136.157 688.159 131.517 689.6C126.877 691.04 122.557 692.159 119.517 692.959C117.917 693.28 116.637 693.6 115.837 693.759C115.357 694.08 114.717 694.08 114.717 694.08Z" fill="#E0E0E0"/>
<path d="M91.8398 670.88C91.8398 670.88 92.1598 671.2 92.7998 671.68C93.4398 672.32 94.3998 673.12 95.3598 674.08C97.4398 676.159 100.48 678.88 103.68 682.08C106.88 685.28 109.76 688.159 111.84 690.241C112.8 691.2 113.6 692 114.24 692.8C114.88 693.441 115.04 693.759 115.04 693.759C115.04 693.759 114.72 693.44 114.08 692.959C113.44 692.32 112.48 691.52 111.52 690.559C109.44 688.48 106.4 685.759 103.2 682.559C99.9998 679.359 97.1198 676.48 95.0398 674.4C94.0798 673.441 93.2798 672.641 92.6398 671.841C92.1598 671.2 91.8398 670.88 91.8398 670.88Z" fill="#E0E0E0"/>
<path d="M76.1582 711.2C76.1582 711.2 76.6382 711.52 77.4382 712.32C78.2382 713.12 79.3582 714.08 80.6382 715.36C83.3582 717.92 87.1982 721.6 91.3582 725.6C95.5182 729.6 99.1982 733.28 101.918 735.841C103.198 737.12 104.318 738.241 105.118 739.041C105.918 739.841 106.238 740.159 106.238 740.32C106.238 740.32 105.758 740 104.958 739.2C104.158 738.4 103.038 737.441 101.758 736.159C99.0382 733.6 95.1982 729.92 91.0382 725.92C86.8782 721.92 83.1982 718.241 80.4782 715.68C79.1982 714.4 78.0782 713.28 77.2782 712.48C76.6382 711.68 76.1582 711.36 76.1582 711.2Z" fill="#E0E0E0"/>
<path d="M105.598 739.359C105.598 739.359 106.238 739.041 107.198 738.72C108.318 738.4 109.918 737.92 111.838 737.28C115.678 736 120.958 734.4 126.878 732.32C132.638 730.241 137.917 728.32 141.598 726.88C143.358 726.241 144.958 725.6 146.078 725.12C147.198 724.641 147.678 724.48 147.678 724.48C147.678 724.48 147.198 724.8 146.078 725.28C145.117 725.759 143.517 726.4 141.758 727.2C138.078 728.8 132.798 730.72 127.038 732.8C121.278 734.88 115.838 736.48 111.998 737.6C110.078 738.08 108.478 738.559 107.358 738.88C106.238 739.2 105.598 739.359 105.598 739.359Z" fill="#E0E0E0"/>
<path d="M476.479 654.4C483.04 654.08 489.279 657.28 493.92 661.759C498.559 666.4 501.6 672.32 503.679 678.4C507.84 690.241 506.879 704.8 504.32 716.959C490.879 713.28 481.759 699.841 477.6 692.8C471.04 681.759 465.759 657.441 476.479 654.4Z" fill="#EBEBEB"/>
<path d="M524.319 730.4C519.679 724.8 519.04 716.48 521.919 709.759C524.799 703.041 530.719 697.92 537.44 695.359C540.64 694.08 544.319 693.441 547.199 695.2C549.919 696.8 551.36 700 551.199 703.2C551.04 706.4 549.76 709.28 547.999 712C542.24 721.12 534.879 728.8 524.319 730.4Z" fill="#EBEBEB"/>
<path d="M525.601 761.92C525.44 761.92 524.48 758.88 523.36 753.92C522.721 751.359 522.401 748.32 522.56 744.8C522.721 741.441 522.721 737.6 523.201 733.759C524.321 725.92 527.521 719.2 530.56 715.041C532.16 712.959 533.601 711.52 534.721 710.559C535.84 709.6 536.48 709.28 536.64 709.28C536.801 709.441 534.24 711.52 531.36 715.68C528.48 719.841 525.601 726.4 524.48 733.92C523.84 737.759 523.84 741.441 523.68 744.8C523.521 748.159 523.68 751.2 524.16 753.6C525.121 758.72 525.76 761.92 525.601 761.92Z" fill="#E0E0E0"/>
<path d="M482.079 672.641C482.239 672.641 482.879 673.92 484.318 676.159C485.599 678.559 487.518 681.92 489.759 686.241C494.239 694.72 500.479 706.559 506.879 719.841C513.279 733.12 518.879 745.28 522.718 754.241C524.639 758.72 526.079 762.241 527.039 764.8C527.999 767.359 528.479 768.8 528.479 768.8C528.318 768.8 527.679 767.52 526.559 765.12C525.279 762.4 523.679 758.88 521.759 754.72C517.759 745.92 511.999 733.92 505.599 720.641C499.039 707.52 493.279 695.68 488.799 686.88C486.718 682.72 484.959 679.2 483.679 676.64C482.559 674.08 481.918 672.641 482.079 672.641Z" fill="#E0E0E0"/>
<path d="M511.998 741.6C501.598 730.241 485.598 724.48 470.398 726.559C466.559 727.041 462.078 728.64 461.119 732.48C460.159 736.32 463.359 739.84 466.398 742.08C479.678 751.52 498.719 751.68 512.159 742.559" fill="#EBEBEB"/>
<path d="M478.719 734.559C478.719 734.4 479.519 734.4 480.959 734.4C482.398 734.241 484.478 734.4 487.039 734.4C491.998 734.72 499.198 735.359 506.398 738.559C509.919 740.159 513.119 742.4 515.678 744.641C518.239 747.041 519.998 749.441 521.278 751.68C522.559 753.92 523.359 755.841 523.839 757.12C524.319 758.4 524.478 759.2 524.478 759.2C524.159 759.359 523.039 756.32 520.478 752.159C519.039 750.08 517.278 747.68 514.878 745.6C512.478 743.359 509.439 741.441 505.919 739.841C499.039 736.641 491.998 735.841 487.039 735.359C481.919 734.88 478.719 734.88 478.719 734.559Z" fill="#E0E0E0"/>
<path d="M117.598 318.88L97.9179 278.4L78.2379 290.88L47.8379 264.959L75.3579 304.959L95.3579 292.159L117.598 318.88Z" fill="#E0E0E0"/>
<path d="M111.678 329.92L84.3181 316.641L79.038 331.52L51.998 330.4L83.358 340.159L88.6381 325.12L111.678 329.92Z" fill="#E0E0E0"/>
<path d="M642.401 724.64C642.401 724.64 642.081 724.64 641.442 724.48C640.801 724.32 639.842 724 638.561 723.68C636.161 723.04 632.481 722.4 627.842 721.92C623.361 721.6 617.761 721.6 611.842 722.559C605.922 723.52 599.522 725.44 593.281 728.64C587.042 731.84 581.761 735.84 577.442 740C573.122 744.159 569.761 748.641 567.522 752.48C565.122 756.32 563.522 759.68 562.561 762.08C562.081 763.2 561.761 764.159 561.442 764.8C561.122 765.441 561.122 765.759 560.961 765.759C560.961 765.759 560.961 765.441 561.281 764.8C561.442 764.159 561.761 763.2 562.242 761.92C563.042 759.52 564.642 756.159 567.042 752.159C569.442 748.159 572.642 743.68 576.961 739.52C581.281 735.2 586.722 731.2 592.961 728C599.201 724.8 605.761 722.88 611.842 721.92C617.922 720.959 623.361 720.959 628.001 721.44C632.642 721.92 636.161 722.72 638.722 723.359C640.001 723.68 640.961 724 641.601 724.32C642.081 724.48 642.401 724.64 642.401 724.64Z" fill="#263238"/>
<path d="M636.8 722.08C631.041 728.48 629.281 738.241 632.32 746.241C632.961 747.841 634.081 749.6 635.841 749.6C637.6 749.6 638.881 747.68 639.361 745.92C641.761 738.72 641.12 730.4 637.441 723.68C639.841 729.441 644 734.559 649.12 738.08C651.041 739.359 653.92 740.48 655.841 739.041C657.761 737.6 657.6 734.88 656.8 732.641C654.081 725.12 645.92 719.841 638.081 720.48C645.281 721.12 652.641 716.8 655.52 710.08C656.641 707.52 656.8 704 654.241 702.72C652.8 701.92 650.881 702.4 649.441 703.041C643.52 705.6 638.72 710.88 636.8 717.12C640 710.08 638.561 701.28 633.12 695.68C631.361 693.92 628.961 692.32 626.561 693.12C623.52 693.92 622.561 697.759 622.72 700.8C622.881 708.48 626.881 716.159 633.12 720.641C629.12 718.08 623.841 717.6 619.52 719.52C616.641 720.8 613.92 723.841 615.2 726.72C616.481 729.441 620.161 729.759 623.2 729.12C628.481 728.159 633.6 725.92 638.081 722.72" fill="#E35359"/>
<path d="M581.762 734.72C590.562 745.92 604.641 752.8 618.882 753.12C618.721 749.92 616.162 747.52 613.602 745.6C604.641 738.72 593.441 735.041 582.241 735.359" fill="#455A64"/>
<path d="M635.363 739.041C635.042 738.88 636.642 734.88 636.803 729.759C637.122 724.64 636.163 720.48 636.322 720.32C636.483 720.159 637.922 724.48 637.603 729.759C637.442 735.2 635.522 739.2 635.363 739.041Z" fill="#263238"/>
<path d="M647.361 732.32C647.202 732.48 645.761 729.12 642.722 726.241C639.682 723.359 636.482 721.759 636.643 721.6C636.643 721.441 640.002 722.72 643.361 725.759C646.561 728.8 647.522 732.32 647.361 732.32Z" fill="#263238"/>
<path d="M646.721 711.359C646.882 711.359 645.921 714.72 642.88 717.759C640.001 720.96 636.48 721.92 636.48 721.6C636.321 721.441 639.521 720.159 642.241 717.12C645.121 714.4 646.561 711.359 646.721 711.359Z" fill="#263238"/>
<path d="M636.801 718.08C637.921 718.08 639.041 718.72 639.521 719.68C640.001 720.641 639.841 722.08 639.201 722.88C638.562 722.4 637.762 721.92 636.801 721.6C636.962 720.32 636.962 719.2 636.801 718.08Z" fill="#FAFAFA"/>
<path d="M628.321 701.12C628.321 701.12 629.282 701.92 630.562 703.68C631.841 705.28 633.282 707.841 634.402 710.88C635.521 713.92 636.002 716.8 636.162 718.88C636.321 720.959 636.162 722.241 636.162 722.241C635.841 722.241 635.841 717.12 633.602 711.2C631.521 705.28 628.002 701.28 628.321 701.12Z" fill="#263238"/>
<path d="M61.2813 705.28C64.6413 705.12 68.0014 706.88 70.4014 709.28C72.8014 711.68 74.4014 714.88 75.5214 718.08C77.6014 724.32 76.9614 732 75.5214 738.4C68.4814 736.32 63.6814 729.28 61.6014 725.44C58.2413 719.68 55.6813 706.88 61.2813 705.28Z" fill="#E35359"/>
<path d="M86.0794 745.759C83.6794 742.72 83.3594 738.4 84.9594 734.88C86.3994 731.359 89.5994 728.641 93.2794 727.359C94.8794 726.72 96.9594 726.4 98.3994 727.359C99.8394 728.159 100.479 729.92 100.479 731.68C100.479 733.441 99.6794 734.88 98.7194 736.32C95.5194 740.8 91.6794 744.8 86.0794 745.759Z" fill="#E35359"/>
<path d="M88.1598 767.041C88.1598 767.041 87.9998 766.559 87.8398 765.759C87.5198 764.8 87.3598 763.68 86.8798 762.08C86.0798 759.041 84.9598 754.72 85.4398 749.92C85.7598 745.12 87.3598 740.8 89.2798 738.241C90.2398 736.959 91.0398 736 91.6798 735.36C91.9998 735.041 92.3198 734.88 92.4798 734.72C92.6398 734.559 92.7998 734.559 92.7998 734.559C92.9598 734.72 91.1998 735.841 89.5998 738.4C87.8398 740.96 86.2398 745.12 85.9198 749.92C85.5998 754.72 86.5598 758.88 87.1998 762.08C87.5198 763.68 87.8398 764.8 87.9998 765.759C88.1598 766.559 88.1598 767.041 88.1598 767.041Z" fill="#263238"/>
<path d="M64.1602 714.88C64.1602 714.88 64.3202 715.041 64.4802 715.359C64.6402 715.68 64.9602 716.32 65.2802 716.8C65.9202 718.08 66.8802 720 68.1602 722.4C70.5602 727.041 73.7602 733.759 77.1202 740.959C80.4802 748.32 83.3602 755.041 85.4402 759.841C86.4002 762.241 87.2002 764.32 87.8402 765.6C88.1602 766.241 88.3202 766.72 88.4802 767.2C88.6402 767.52 88.6401 767.68 88.6401 767.841C88.6401 767.841 88.4802 767.68 88.3202 767.359C88.1602 766.88 87.8402 766.4 87.6802 765.759C87.0402 764.32 86.2401 762.4 85.1201 760C83.0402 755.2 80.0002 748.48 76.6402 741.12C73.2802 733.759 70.0802 727.2 67.8402 722.4C66.7202 720 65.7602 718.08 65.1202 716.8C64.8002 716.159 64.6402 715.68 64.3202 715.2C64.1602 715.041 64.1602 714.88 64.1602 714.88Z" fill="#263238"/>
<path d="M79.0403 753.441C74.5603 746.72 66.5603 742.4 58.5603 742.4C56.4803 742.4 54.0803 742.88 53.2803 744.8C52.4803 746.72 53.7603 748.8 55.3603 750.24C61.6003 756.159 71.5203 757.759 79.2003 754.08" fill="#E35359"/>
<path d="M62.0801 747.52C62.0801 747.52 62.5601 747.52 63.3601 747.52C63.8401 747.52 64.3201 747.52 64.8001 747.68C65.4401 747.68 66.0801 747.841 66.7201 748C67.5201 748.16 68.3201 748.32 69.1201 748.48C69.9201 748.641 70.8801 748.959 71.8401 749.28C73.6001 749.92 75.6801 750.88 77.4401 752.16C79.3601 753.441 80.9601 754.88 82.2401 756.32C82.8801 757.12 83.5201 757.759 84.0001 758.559C84.4801 759.2 84.9601 760 85.2801 760.641C85.7601 761.28 85.9201 761.92 86.2401 762.4C86.5601 762.88 86.7201 763.359 86.8801 763.841C87.2001 764.641 87.3601 765.12 87.3601 765.12C87.2001 765.12 86.7201 763.359 85.1201 760.959C84.8001 760.32 84.3201 759.68 83.8401 759.041C83.3601 758.4 82.7201 757.6 82.0801 756.96C80.8001 755.52 79.2001 754.08 77.2801 752.8C75.3601 751.52 73.4401 750.559 71.6801 749.92C70.7201 749.6 69.9201 749.28 69.1201 749.12C68.3201 748.8 67.5201 748.641 66.7201 748.641C63.8401 747.68 62.0801 747.68 62.0801 747.52Z" fill="#263238"/>
<path d="M518.082 768.159H561.442L623.842 466.08L582.242 457.441L518.082 768.159Z" fill="#455A64"/>
<path d="M705.281 672.48L442.561 618.08L435.201 611.52L462.881 519.68L475.201 520.48L456.321 510.559L467.04 456.959L729.761 511.2L737.281 517.92L726.401 570.559L705.601 571.041L716.961 573.12L724.481 579.841L705.281 672.48Z" fill="#263238"/>
<path d="M697.921 665.759L435.201 611.52L455.521 513.12L467.681 513.92L457.44 503.2L467.04 456.959L729.761 511.2L718.881 563.841L698.081 564.32L716.961 573.12L697.921 665.759Z" fill="#455A64"/>
<path d="M703.682 563.68C703.682 563.68 703.523 563.68 703.043 563.68C702.563 563.68 701.923 563.68 701.123 563.52C699.523 563.359 697.123 563.2 694.082 562.88C692.482 562.72 690.882 562.559 688.963 562.4C687.043 562.241 685.123 561.92 682.882 561.759C678.563 561.28 673.602 560.641 668.163 559.841C665.443 559.359 662.563 559.041 659.682 558.559C656.643 558.08 653.602 557.441 650.402 556.959C644.002 555.841 637.282 554.4 630.082 552.959C615.843 549.92 600.163 546.241 584.002 542.08C551.363 533.759 522.082 525.6 500.643 520.48C495.363 519.041 490.402 518.08 486.243 516.959C481.923 516 478.243 515.041 475.363 514.4C472.482 513.759 470.082 513.12 468.482 512.8C467.682 512.641 467.202 512.48 466.723 512.32C466.243 512.159 466.082 512.159 466.082 512.159C466.082 512.159 466.243 512.159 466.723 512.32C467.202 512.48 467.843 512.48 468.482 512.641C470.082 512.959 472.482 513.441 475.363 514.08C478.402 514.72 482.082 515.52 486.402 516.48C490.723 517.441 495.523 518.559 500.963 519.841C522.402 524.959 551.843 532.8 584.323 541.28C600.643 545.441 616.163 549.12 630.402 552.159C637.602 553.6 644.323 555.041 650.723 556.159C653.923 556.8 656.963 557.28 660.002 557.759C663.043 558.241 665.763 558.72 668.482 559.2C673.923 560.159 678.882 560.64 683.202 561.28C685.443 561.6 687.363 561.759 689.282 562.08C691.202 562.241 692.802 562.4 694.402 562.559C697.443 562.88 699.843 563.2 701.443 563.359C702.243 563.52 702.882 563.52 703.202 563.52C703.523 563.68 703.682 563.68 703.682 563.68Z" fill="#263238"/>
<path d="M716.959 555.359C716.959 555.359 716.8 555.2 716.32 555.041C715.841 554.72 715.36 554.4 714.72 553.92C713.28 552.8 711.2 551.2 708.32 549.28C702.72 545.441 694.56 539.841 683.68 534.241C672.96 528.48 659.52 522.559 644.16 517.759C628.8 513.12 611.359 509.441 592.8 508.32C574.241 507.041 556.48 508.8 540.32 509.12C532.32 509.28 524.48 509.28 517.441 508.641C510.241 508 503.68 507.041 497.6 505.759C485.6 503.2 476.32 499.841 469.92 497.12C466.72 495.841 464.32 494.72 462.72 493.92C461.92 493.6 461.28 493.28 460.959 492.959C460.48 492.8 460.32 492.641 460.32 492.641C460.32 492.641 460.48 492.641 460.959 492.959C461.441 493.12 462.08 493.441 462.88 493.759C464.48 494.559 466.88 495.52 470.08 496.8C476.48 499.359 485.76 502.72 497.76 505.12C503.68 506.4 510.4 507.359 517.441 507.841C524.641 508.48 532.32 508.48 540.32 508.159C556.48 507.68 574.241 505.92 592.8 507.2C611.52 508.32 628.96 512 644.48 516.8C659.841 521.759 673.28 527.68 684 533.441C694.72 539.2 703.041 544.8 708.48 548.8C711.2 550.72 713.28 552.48 714.72 553.6C715.36 554.08 715.841 554.559 716.32 554.88C716.8 555.2 716.959 555.359 716.959 555.359Z" fill="#263238"/>
<path d="M589.921 484.8C589.921 484.8 589.441 484.959 588.641 485.28C587.682 485.6 586.561 485.92 585.121 486.4C583.521 486.88 581.601 487.359 579.361 488C577.121 488.48 574.561 489.28 571.682 489.759C568.801 490.4 565.761 490.88 562.241 491.359C558.882 492 555.201 492.32 551.361 492.8C543.682 493.6 535.201 493.92 526.241 493.759C517.282 493.6 508.961 492.8 501.282 491.68C497.441 491.04 493.921 490.559 490.561 489.759C487.201 489.12 484.161 488.32 481.28 487.68C478.401 487.041 475.841 486.241 473.761 485.6C471.521 484.959 469.601 484.32 468.161 483.84C466.721 483.359 465.441 482.88 464.641 482.559C463.841 482.24 463.361 482.08 463.361 482.08C463.361 482.08 463.841 482.08 464.641 482.4C465.601 482.72 466.721 483.04 468.161 483.52C469.761 484 471.682 484.641 473.921 485.12C476.161 485.759 478.721 486.4 481.601 487.041C484.482 487.68 487.521 488.48 490.88 488.959C494.241 489.6 497.921 490.08 501.601 490.72C509.282 491.68 517.601 492.48 526.561 492.64C535.361 492.8 543.841 492.48 551.521 491.68C555.361 491.2 559.041 490.88 562.401 490.4C565.761 489.92 568.961 489.441 571.841 488.8C574.721 488.32 577.282 487.68 579.521 487.2C581.761 486.72 583.682 486.241 585.282 485.92C586.721 485.6 588.001 485.28 588.961 484.959C589.441 484.8 589.921 484.641 589.921 484.8Z" fill="#263238"/>
<path d="M519.999 578.72C519.999 578.72 520.479 578.88 521.118 579.359C521.918 579.841 523.039 580.641 524.639 581.441C527.679 583.359 532.159 586.08 538.079 589.28C543.999 592.48 551.518 596.159 560.959 598.08C563.359 598.559 565.759 599.041 568.318 599.2C570.879 599.359 573.599 599.2 575.679 597.6C576.799 596.8 577.599 595.68 577.918 594.4C578.239 593.12 578.239 591.68 577.918 590.4C577.279 587.68 575.199 585.441 572.959 583.68C552.959 570.4 524.639 560.8 492.799 559.841C488.799 559.68 484.799 559.68 480.639 559.841C476.639 560 472.318 560.959 469.599 564C468.159 565.441 467.359 567.359 467.518 569.441C467.518 571.359 468.479 573.28 469.759 575.041C472.318 578.4 475.999 580.641 479.679 583.041C494.079 592.8 509.279 602.559 526.559 609.28C543.679 616 561.918 619.041 579.039 616.48C583.359 615.841 587.518 614.88 591.518 613.6C595.518 612.32 599.359 610.241 601.918 607.041C604.479 603.841 605.599 599.68 605.599 595.68C605.599 591.68 604.639 587.68 603.039 584.159C599.679 576.959 593.918 571.359 587.518 567.359C581.118 563.2 574.239 560.641 567.518 558.72C560.639 556.8 553.918 555.359 547.518 553.92C541.118 552.48 534.879 551.041 528.959 549.759C505.439 544.48 486.399 540 473.118 537.12C466.559 535.68 461.439 534.4 457.918 533.6C456.159 533.12 454.879 532.959 453.918 532.641C452.959 532.48 452.639 532.32 452.639 532.32C452.639 532.32 453.118 532.32 453.918 532.641C454.879 532.8 456.159 533.12 457.918 533.441C461.439 534.241 466.559 535.359 473.118 536.8C486.399 539.68 505.439 544 529.118 549.12C535.039 550.4 541.279 551.841 547.679 553.28C554.079 554.72 560.799 556.159 567.679 558.08C574.559 560 581.599 562.72 587.999 566.72C594.399 570.88 600.318 576.48 603.839 583.841C605.599 587.52 606.559 591.68 606.559 595.841C606.559 600 605.439 604.32 602.718 607.68C599.999 611.041 595.999 613.12 591.999 614.559C587.839 615.841 583.679 616.959 579.359 617.6C561.918 620.159 543.518 617.12 526.399 610.4C509.118 603.68 493.759 593.92 479.359 584.159C475.839 581.759 471.999 579.359 469.279 575.841C467.999 574.08 466.879 572 466.879 569.759C466.718 567.52 467.679 565.28 469.279 563.68C470.718 562.08 472.639 560.959 474.718 560.32C476.799 559.68 478.879 559.359 480.959 559.359C485.118 559.2 489.118 559.2 493.118 559.359C525.279 560.32 553.439 570.08 573.599 583.52C575.999 585.28 578.239 587.68 578.879 590.72C579.199 592.159 579.199 593.759 578.879 595.041C578.399 596.48 577.599 597.759 576.479 598.559C574.079 600.159 571.199 600.48 568.639 600.32C566.079 600.159 563.679 599.68 561.279 599.2C551.839 597.12 544.318 593.28 538.399 590.08C532.479 586.88 527.999 584 524.959 582.08C523.518 581.12 522.399 580.32 521.599 579.841C520.479 578.88 519.999 578.72 519.999 578.72Z" fill="#263238"/>
<path d="M711.841 595.68C711.841 595.68 711.361 595.68 710.241 595.359C709.281 595.041 707.841 594.88 705.922 594.4C702.081 593.759 696.481 593.441 689.601 594.559C682.722 595.52 674.722 598.08 666.401 602.08C658.081 606.08 649.601 611.52 640.641 617.441C631.681 623.2 623.201 628.8 614.722 632.641C606.241 636.48 598.241 638.88 591.201 639.68C584.161 640.48 578.561 640 574.722 639.2C572.801 638.72 571.361 638.4 570.401 638.08C569.441 637.759 568.961 637.6 568.961 637.6C568.961 637.6 569.441 637.759 570.561 637.92C571.522 638.241 572.961 638.559 574.881 638.88C578.722 639.52 584.322 640 591.201 639.041C598.081 638.08 606.081 635.841 614.401 631.841C622.722 628 631.201 622.4 640.161 616.641C649.122 610.88 657.601 605.28 666.081 601.28C674.401 597.28 682.561 594.88 689.441 593.92C696.322 592.959 702.081 593.441 705.922 594.08C707.841 594.4 709.281 594.88 710.241 595.2C711.361 595.52 711.841 595.68 711.841 595.68Z" fill="#263238"/>
<path d="M707.04 621.759C707.04 621.92 705.76 621.28 703.519 620.8C701.28 620.32 697.76 619.841 693.601 620.48C689.44 620.959 684.64 622.72 679.52 624.8C674.401 626.88 668.96 629.92 663.36 633.28C657.76 636.641 652.48 639.841 647.36 642.241C642.24 644.641 637.44 646.4 633.28 647.359C629.12 648.32 625.599 648.48 623.199 648.32C622.08 648.32 621.12 648.159 620.48 648.159C619.84 648 619.52 648 619.52 648C619.52 647.841 620.799 648 623.199 648C625.599 648 628.96 647.68 633.12 646.72C637.28 645.759 641.92 644 647.04 641.441C651.999 639.041 657.28 635.841 662.88 632.48C668.48 629.12 673.92 626.241 679.201 624C684.32 621.759 689.28 620.32 693.601 619.841C697.92 619.359 701.44 619.841 703.68 620.48C704.801 620.8 705.76 621.12 706.24 621.441C706.719 621.6 707.04 621.759 707.04 621.759Z" fill="#263238"/>
<path d="M622.241 489.28C622.241 489.6 612.162 487.52 599.682 484.8C587.362 482.08 577.282 479.68 577.441 479.359C577.441 479.041 587.521 481.12 600.001 483.841C612.321 486.559 622.401 488.959 622.241 489.28Z" fill="#263238"/>
<path d="M549.603 549.92L541.443 548.159L539.203 558.72L524.003 555.359L526.243 544.8L496.963 538.4L499.203 528.159L531.522 499.041L547.683 502.559L518.083 530.08L529.283 532.48L531.363 523.04L546.083 526.241L544.003 535.68L552.163 537.441L549.603 549.92Z" fill="white"/>
<path d="M556.482 533.441C560.482 515.2 572.961 506.88 587.202 509.92C601.281 512.96 609.281 525.76 605.281 544C601.281 562.241 588.802 570.559 574.722 567.52C560.482 564.48 552.482 551.841 556.482 533.441ZM589.602 540.641C592.161 528.96 589.442 523.841 584.482 522.72C579.361 521.6 574.882 525.12 572.322 536.8C569.761 548.48 572.482 553.6 577.602 554.72C582.402 555.841 587.042 552.32 589.602 540.641Z" fill="white"/>
<path d="M659.201 573.759L651.042 572L648.801 582.559L633.601 579.2L635.842 568.641L606.561 562.241L608.801 552L641.121 522.88L657.281 526.4L627.681 553.92L638.881 556.32L640.961 546.88L655.681 550.08L653.601 559.52L661.761 561.28L659.201 573.759Z" fill="white"/>
<path d="M557.918 229.12C557.918 229.12 558.077 229.28 558.557 229.441C559.038 229.6 559.518 229.92 560.318 230.4C561.757 231.359 563.998 232.641 566.398 234.88C571.357 239.041 578.077 246.4 582.077 257.6C584.157 263.2 585.438 269.6 585.438 276.48C585.438 283.359 584.318 290.88 581.598 298.241C578.877 305.6 574.718 312.8 568.798 319.041C565.918 322.08 562.557 324.959 558.718 327.2C554.877 329.441 550.718 331.2 546.398 332.32C537.598 334.559 528.638 334.4 520.318 333.759C511.838 333.12 503.838 332 495.998 331.68C488.318 331.359 480.798 331.68 474.238 333.441C467.518 335.2 461.757 338.08 457.277 341.92C452.798 345.759 450.077 350.4 448.638 354.88C447.198 359.359 447.038 363.359 447.518 366.559C447.998 369.759 448.957 372.159 449.918 373.6C450.718 375.04 451.357 375.841 451.357 375.841C451.357 375.841 450.718 375.2 449.918 373.6C448.957 372.159 447.998 369.759 447.357 366.4C446.877 363.2 446.877 359.04 448.318 354.559C449.598 350.08 452.477 345.28 456.957 341.441C461.438 337.441 467.357 334.559 474.077 332.8C480.798 331.041 488.318 330.559 496.157 330.88C503.998 331.2 511.998 332.32 520.477 332.959C528.798 333.6 537.757 333.6 546.398 331.52C550.718 330.4 554.877 328.8 558.557 326.559C562.238 324.32 565.598 321.6 568.477 318.559C574.238 312.48 578.398 305.28 581.118 298.08C583.838 290.88 584.957 283.52 584.957 276.641C584.957 269.759 583.677 263.359 581.757 257.92C577.757 246.88 571.198 239.52 566.398 235.2C563.998 232.959 561.757 231.68 560.318 230.72C559.677 230.241 559.038 229.92 558.718 229.759C558.077 229.28 557.918 229.12 557.918 229.12Z" fill="#263238"/>
<path d="M447.198 27.2C451.358 39.2 455.519 51.52 456.158 64.32C456.798 77.12 453.278 90.56 443.998 99.36C433.278 109.6 417.439 111.52 402.719 112.96C413.278 113.28 424.958 115.84 431.198 124.32C438.398 134.08 436.158 148 431.198 159.041C426.239 170.08 418.878 180.48 416.958 192.32C433.758 181.759 456.319 181.12 473.599 190.88C490.878 200.641 502.239 220.159 501.919 240C511.039 222.88 526.719 208.8 545.278 203.52C563.998 198.241 585.598 202.559 599.519 216C588.639 200.32 584.478 180.159 587.998 161.441C591.678 142.72 603.039 125.6 619.039 115.2C610.558 122.24 597.278 121.44 588.158 115.04C579.039 108.64 573.919 97.92 571.998 87.04C570.078 76.16 571.039 64.96 571.998 53.92C562.398 66.4 542.558 69.28 529.919 59.84C516.958 50.24 513.598 32.64 511.358 16.64C512.478 32.32 500.478 47.84 485.119 50.72C469.758 53.6 452.958 43.2 448.478 28.16" fill="#F5F5F5"/>
<path d="M549.919 220.159C548.799 227.68 550.879 235.36 553.279 242.72C553.758 244.16 554.238 245.441 555.199 246.559C556.158 247.52 557.758 248.159 559.199 247.52C560.479 247.041 561.119 245.6 561.599 244.32C562.558 241.6 563.038 238.559 563.038 235.68C565.438 237.441 567.999 239.36 570.879 239.36C573.919 239.52 577.119 237.12 576.638 234.08C576.319 232.48 575.038 231.2 573.919 230.08C568.638 225.28 563.358 220.32 558.079 215.52C557.919 215.36 549.279 220.48 549.919 220.159Z" fill="#E35359"/>
<path d="M465.439 67.84C465.439 67.84 423.359 98.88 436.159 148.641L440.48 149.12L455.359 133.76L475.839 162.241L472.959 133.28L481.759 139.68L496.8 108.32C496.8 108.32 474.4 92.32 477.6 76.64C477.6 76.48 464.48 75.68 465.439 67.84Z" fill="#E35359"/>
<path d="M448.959 172.8C448.959 172.8 450.878 191.52 467.198 206.88L492.159 191.841C492.318 191.68 459.678 185.76 448.959 172.8Z" fill="#E35359"/>
<path d="M501.438 206.08C501.438 206.08 512.958 224.641 542.238 223.68C563.038 223.04 576.478 196.48 571.198 171.2L554.237 184L547.998 179.84V193.28C547.998 193.28 541.119 203.2 532.319 197.6C532.319 197.44 524.637 213.759 501.438 206.08Z" fill="#E35359"/>
<path d="M512.157 62.56C511.198 63.04 532.157 87.68 532.318 102.56C532.318 102.56 539.198 88.96 553.438 88.48C553.438 88.48 553.918 76.8 565.277 79.2C565.437 79.04 540.957 50.08 512.157 62.56Z" fill="#E35359"/>
<path d="M580.48 110.88C580.48 110.88 590.401 128.32 590.08 146.08C590.08 146.08 575.84 131.36 564.16 141.759L561.28 134.72C561.28 134.72 568.16 133.28 568.001 125.12C568.001 116.96 559.84 112 559.84 112C559.84 112 575.68 125.28 580.48 110.88Z" fill="#E35359"/>
<path d="M494.877 153.76C494.877 153.92 476.638 158.56 454.077 164C431.518 169.441 413.118 173.76 412.958 173.441C412.797 173.12 431.197 168.641 453.758 163.2C476.477 157.76 494.877 153.441 494.877 153.76Z" fill="#263238"/>
<path d="M499.678 124.8C499.678 124.96 489.758 121.6 477.599 117.28C465.599 112.96 455.838 109.12 455.838 108.96C455.838 108.8 465.758 112.16 477.919 116.48C490.078 120.8 499.678 124.64 499.678 124.8Z" fill="#263238"/>
<path d="M485.28 16.8C485.439 16.8 493.12 38.4001 502.4 65.1201C511.68 91.8401 519.04 113.6 518.72 113.6C518.559 113.6 510.88 92.0001 501.6 65.2801C492.32 38.7201 484.959 16.96 485.28 16.8Z" fill="#263238"/>
<path d="M546.239 78.88C546.399 78.88 546.399 80.64 546.079 83.68C545.919 86.56 545.439 90.56 544.639 95.04C543.839 99.52 543.039 103.36 542.239 106.24C541.439 109.12 540.96 110.88 540.799 110.72C540.639 110.72 541.119 108.96 541.599 106.08C542.239 103.2 543.039 99.2 543.679 94.88C544.479 90.56 544.96 86.56 545.279 83.52C545.919 80.64 546.079 78.88 546.239 78.88Z" fill="#263238"/>
<path d="M607.199 81.92C607.359 82.08 593.279 90.56 575.999 100.64C558.56 110.72 544.479 118.88 544.32 118.72C544.16 118.56 558.24 110.08 575.52 100C592.96 89.76 607.04 81.76 607.199 81.92Z" fill="#263238"/>
<path d="M607.358 159.841C607.358 159.841 606.558 159.841 604.958 159.68C603.519 159.52 601.279 159.2 598.719 158.88C593.438 158.241 586.079 157.12 578.079 155.68C570.079 154.241 562.719 152.8 557.599 151.68C555.038 151.2 552.799 150.72 551.358 150.241C549.919 149.92 549.119 149.6 549.119 149.6C549.119 149.6 549.919 149.6 551.358 149.92C552.958 150.241 555.038 150.559 557.599 151.041C563.038 152 570.238 153.28 578.238 154.72C586.238 156 593.438 157.28 598.879 158.241C601.438 158.72 603.519 159.041 605.119 159.359C606.558 159.52 607.358 159.68 607.358 159.841Z" fill="#263238"/>
<path d="M584.159 228.96C583.998 229.12 571.839 215.841 556.959 199.36C542.079 182.88 530.239 169.28 530.398 169.12C530.559 168.96 542.718 182.241 557.598 198.72C572.479 215.2 584.318 228.8 584.159 228.96Z" fill="#263238"/>
<path d="M487.199 222.88C487.199 222.88 487.36 222.241 487.84 221.12C488.319 220 488.96 218.241 489.76 216.32C491.36 212.159 493.76 206.559 496.64 200.48C499.36 194.4 502.08 188.8 503.999 184.8C504.96 182.88 505.76 181.28 506.399 180.159C507.04 179.041 507.36 178.559 507.36 178.559C507.36 178.559 507.199 179.2 506.719 180.32C506.08 181.6 505.44 183.2 504.64 185.12C502.72 189.28 500.319 194.72 497.44 200.8C494.719 206.88 492.319 212.32 490.399 216.48C489.599 218.4 488.799 220 488.319 221.28C487.519 222.4 487.199 223.041 487.199 222.88Z" fill="#263238"/>
<path d="M499.678 142.4C499.678 142.241 500.957 142.08 502.878 141.441C504.798 140.641 507.198 139.2 509.117 136.641C510.878 134.08 511.517 131.36 511.678 129.28C511.837 127.2 511.517 125.92 511.678 125.92C511.837 125.92 512.317 127.2 512.317 129.28C512.317 131.36 511.837 134.4 509.917 137.12C507.998 139.841 505.278 141.28 503.357 141.92C500.957 142.56 499.678 142.4 499.678 142.4Z" fill="#263238"/>
<path d="M512.959 165.12C512.799 165.12 513.599 164 513.918 162.08C514.238 160.159 514.238 157.28 512.638 154.72C511.038 152.159 508.479 150.88 506.719 150.241C504.799 149.759 503.52 149.92 503.52 149.759C503.52 149.759 504.799 149.28 506.879 149.759C508.959 150.08 511.679 151.52 513.438 154.241C515.199 156.959 515.199 160.159 514.559 162.08C513.918 164.16 512.959 165.12 512.959 165.12Z" fill="#263238"/>
<path d="M543.998 151.52C543.998 151.68 542.558 151.2 540.319 150.88C538.078 150.559 534.719 150.72 531.519 152C528.319 153.28 525.758 155.52 524.319 157.28C522.878 159.041 522.239 160.32 522.078 160.32C521.919 160.32 522.398 158.88 523.839 156.959C525.278 155.041 527.678 152.641 531.198 151.359C534.558 150.08 538.078 149.92 540.319 150.4C542.878 150.72 544.158 151.52 543.998 151.52Z" fill="#263238"/>
<path d="M543.199 142.241C543.199 142.4 542.08 142.4 540.48 141.6C538.88 140.96 536.799 139.36 535.52 136.96C534.24 134.56 534.399 131.84 534.72 130.24C535.199 128.48 535.84 127.68 535.84 127.68C535.999 127.68 535.52 128.64 535.199 130.4C534.88 132 535.04 134.4 536.16 136.641C537.28 138.88 539.199 140.32 540.64 141.12C542.24 141.92 543.199 142.08 543.199 142.241Z" fill="#263238"/>
<path d="M533.76 122.08C533.76 122.24 533.119 122.88 531.679 123.84C530.399 124.8 528.319 126.08 525.599 126.24C522.879 126.4 520.64 124.96 519.679 123.52C518.719 122.08 519.04 120.8 519.04 120.8C519.199 120.8 519.199 121.92 520.159 123.04C521.119 124.16 523.04 125.44 525.44 125.28C527.84 125.12 529.759 124 531.199 123.2C532.799 122.56 533.76 121.92 533.76 122.08Z" fill="#263238"/>
<g opacity="0.3">
<g opacity="0.3">
<path opacity="0.3" d="M549.599 222.08C552.959 220.32 555.999 218.72 558.879 216.159L561.92 218.88C557.92 221.759 553.279 224.48 549.759 228.159C549.759 228.32 549.44 224.159 549.599 222.08Z" fill="black"/>
</g>
</g>
<path d="M559.839 215.2C559.998 215.359 558.239 217.92 555.198 219.841C551.998 221.92 548.959 222.4 548.959 222.24C548.959 221.92 551.678 221.12 554.718 219.2C557.598 217.28 559.518 215.04 559.839 215.2Z" fill="#263238"/>
<path d="M553.439 215.68C553.439 215.68 552.799 216 551.68 216.48C551.199 216.8 550.399 217.12 549.599 217.28C548.799 217.6 547.839 217.92 546.719 218.241C544.639 218.88 541.919 219.36 539.039 219.68C536.159 220 532.959 220 529.439 219.52C526.08 219.041 522.88 218.4 520.159 217.441C517.439 216.48 515.039 215.359 512.959 214.241C511.998 213.759 511.199 213.12 510.399 212.641C509.599 212.16 509.119 211.68 508.48 211.36C507.519 210.56 507.039 210.241 507.039 210.08C507.199 209.92 509.28 211.68 513.119 213.6C515.039 214.559 517.439 215.68 520.159 216.48C522.88 217.28 526.08 218.08 529.28 218.4C532.639 218.72 535.839 218.72 538.719 218.559C541.599 218.241 544.159 217.92 546.239 217.28C550.88 216.641 553.28 215.52 553.439 215.68Z" fill="#FAFAFA"/>
<path d="M554.399 242.08C554.24 242.241 552.799 239.52 552.32 235.841C551.679 232.16 552.16 229.28 552.32 229.28C552.64 229.28 552.479 232.16 553.12 235.68C553.599 239.2 554.559 241.92 554.399 242.08Z" fill="#FAFAFA"/>
<path d="M465.119 199.52C465.119 199.52 463.999 198.72 462.399 197.28C460.799 195.68 458.88 193.441 456.959 190.72C455.039 188 453.599 185.28 452.639 183.2C451.68 181.12 451.359 179.841 451.359 179.841C451.519 179.68 453.759 184.8 457.439 190.08C461.28 195.52 465.28 199.36 465.119 199.52Z" fill="#FAFAFA"/>
<path d="M450.079 92.48C450.239 92.64 448.639 95.04 446.399 99.04C444.318 103.2 441.759 109.12 439.999 116C438.239 122.88 437.759 129.28 437.759 133.92C437.759 138.559 438.079 141.441 437.918 141.441C437.918 141.441 437.759 140.8 437.599 139.359C437.439 138.08 437.279 136.159 437.279 133.76C437.118 129.12 437.599 122.56 439.359 115.68C441.118 108.8 443.679 102.72 446.079 98.72C447.199 96.64 448.159 95.04 448.959 94.08C449.599 92.96 450.079 92.48 450.079 92.48Z" fill="#FAFAFA"/>
<path d="M461.918 78.5599C462.078 78.7199 461.118 79.8399 459.678 80.9599C458.239 82.0799 457.118 82.8799 456.959 82.7199C456.798 82.5599 457.759 81.4399 459.198 80.3199C460.478 79.1999 461.759 78.3999 461.918 78.5599Z" fill="#FAFAFA"/>
<path d="M494.559 471.359C494.559 471.359 495.039 471.68 495.519 472.48C495.999 473.28 496.478 474.559 496.319 476.32C496.159 478.08 495.199 480.159 493.599 481.92C491.839 483.68 489.599 485.441 486.719 486.72C483.839 488 480.478 488.641 476.799 488.32C473.119 487.841 469.278 486.4 466.239 483.52C463.199 480.8 461.119 476.641 460.478 472.159C459.839 467.68 460.639 462.88 462.559 458.559C464.478 454.241 467.199 450.4 470.078 447.041C472.959 443.68 475.999 440.641 478.399 437.441C480.799 434.241 482.719 430.88 483.359 427.359C484.159 423.841 483.999 420.48 483.359 417.6C482.078 411.68 478.559 407.68 475.999 405.441C473.439 403.2 471.678 402.4 471.678 402.4C471.678 402.4 473.599 403.041 476.159 405.28C478.719 407.52 482.399 411.359 483.839 417.6C484.478 420.641 484.639 424.159 483.999 427.68C483.199 431.359 481.439 434.88 478.878 438.08C476.478 441.28 473.439 444.32 470.559 447.68C467.678 451.041 465.119 454.72 463.199 459.041C461.439 463.359 460.639 467.841 461.278 472.159C461.759 476.48 463.839 480.48 466.719 483.041C469.599 485.759 473.278 487.2 476.799 487.68C480.319 488.159 483.678 487.359 486.399 486.241C491.999 483.841 495.678 479.841 495.839 476.32C495.999 474.559 495.519 473.28 495.199 472.48C494.878 471.841 494.559 471.52 494.559 471.359Z" fill="#263238"/>
<path d="M170.559 684.48C175.2 662.56 202.079 503.359 202.079 503.359C202.079 503.359 182.72 506.4 178.72 513.441C174.4 521.12 153.6 638.4 151.2 678.241C149.279 678.08 147.359 678.08 145.44 678.241C140.64 678.72 135.679 680.32 132.32 683.841C128.32 688 126.88 694.56 128.8 700C129.92 702.88 131.84 705.441 134.4 707.2C134.08 710.56 135.2 714.72 137.92 716.48C140.959 718.56 145.279 718.4 148.32 716.16C148.959 718.241 150.879 719.841 152.959 720.16C155.04 720.48 157.44 719.359 158.559 717.6C159.84 720.641 164 720.8 167.04 719.68C172.64 717.6 176.959 712.32 178.24 706.4C179.52 700.48 177.92 694.241 174.559 689.28C173.279 687.359 172 685.76 170.559 684.48Z" fill="#E35359"/>
<g opacity="0.3">
<g opacity="0.3">
<path opacity="0.3" d="M174.4 661.6C162.879 641.441 157.12 620 165.759 588.8C172 566.4 184.32 543.68 195.679 523.52" fill="black"/>
</g>
</g>
<path d="M168.158 704.48C168.158 704.48 168.798 704.159 169.598 703.2C170.398 702.4 171.198 700.641 170.719 698.56C170.238 696.48 168.319 694.4 165.438 694.08C162.719 693.6 159.519 695.041 157.598 697.6C155.519 700.16 154.719 703.36 154.558 706.08C154.398 708.96 155.038 711.52 155.998 713.441C157.758 717.441 160.158 719.041 159.998 719.2C159.998 719.2 159.838 719.2 159.519 718.88C159.198 718.72 158.878 718.4 158.398 717.92C157.438 717.12 156.319 715.68 155.358 713.6C154.398 711.52 153.758 708.959 153.758 705.92C153.919 703.041 154.719 699.68 156.798 696.96C158.878 694.241 162.398 692.8 165.438 693.28C168.478 693.76 170.719 696.159 171.038 698.4C171.519 700.8 170.398 702.56 169.598 703.36C169.119 703.841 168.798 704 168.478 704.16C168.319 704.48 168.158 704.48 168.158 704.48Z" fill="#263238"/>
<path d="M132.639 705.92C132.639 705.92 133.119 706.241 134.239 706.72C135.199 707.2 136.799 707.84 138.879 708C140.799 708.159 143.359 707.841 145.759 706.72C146.879 706.08 147.999 705.28 148.959 704.159C149.759 703.041 150.238 701.6 150.079 700.159C149.599 697.44 147.999 695.2 146.238 693.44C144.479 691.68 142.399 690.559 140.638 689.92L139.679 689.6L140.638 689.28C145.279 688.159 147.838 686.4 147.999 686.559C147.999 686.559 147.359 687.04 146.238 687.68C145.119 688.32 143.199 689.12 140.959 689.92V689.28C142.879 689.92 144.959 691.04 146.879 692.8C147.838 693.759 148.638 694.72 149.438 695.84C150.238 696.959 150.879 698.4 151.038 699.841C151.359 701.441 150.719 703.2 149.759 704.48C148.799 705.759 147.519 706.559 146.238 707.2C143.679 708.48 141.119 708.641 139.038 708.48C136.959 708.159 135.359 707.52 134.399 706.88C133.919 706.559 133.599 706.241 133.279 706.08C132.799 705.92 132.639 705.92 132.639 705.92Z" fill="#263238"/>
<path d="M147.357 706.08C147.678 706.241 146.718 708.48 147.038 711.359C147.357 714.241 148.798 716.32 148.638 716.32C148.478 716.48 146.718 714.559 146.238 711.359C145.757 708.32 147.198 706.08 147.357 706.08Z" fill="#263238"/>
<path d="M159.037 694.88C158.876 694.88 159.037 693.92 158.237 692.959C157.917 692.48 157.276 691.841 156.637 691.52C155.837 691.2 155.037 691.041 154.076 691.359C152.157 691.68 150.876 693.12 150.076 694.08C149.276 695.041 148.796 695.841 148.796 695.841C148.637 695.841 148.957 695.041 149.596 693.76C150.237 692.641 151.676 691.041 153.917 690.559C155.037 690.4 156.157 690.4 156.957 690.88C157.917 691.359 158.396 692 158.717 692.641C159.517 693.92 159.196 694.88 159.037 694.88Z" fill="#263238"/>
<g opacity="0.3">
<g opacity="0.3">
<path opacity="0.3" d="M141.118 689.441C143.679 688.8 146.559 689.6 148.479 691.359C150.239 689.441 152.318 687.841 154.879 687.359C157.439 687.041 160.318 688.48 160.799 690.88C162.559 690.08 164.799 690.08 166.559 691.2C168.318 692.32 169.439 694.08 169.759 696C167.039 693.12 162.079 692.48 158.718 694.72C158.718 693.12 157.599 691.68 155.999 691.2C154.559 690.72 152.799 691.2 151.518 692C150.239 692.959 149.279 694.24 148.479 695.68C146.718 692.641 143.999 690.4 140.639 689.12" fill="black"/>
</g>
</g>
<path d="M135.678 704.959C135.678 704.959 134.398 704.32 132.798 702.72C131.198 700.959 129.598 698.08 129.438 694.559C129.118 691.041 130.399 687.84 131.679 685.92C132.959 684 134.078 683.2 134.238 683.2C134.398 683.359 133.278 684.32 132.158 686.24C131.038 688.159 130.078 691.041 130.238 694.4C130.558 697.759 131.999 700.48 133.279 702.241C134.559 704 135.678 704.8 135.678 704.959Z" fill="white"/>
<path d="M482.56 392.48C481.44 389.441 478.56 386.4 475.52 387.2C476.16 385.12 475.52 382.72 473.92 381.28C472.32 379.841 469.92 379.359 467.84 380.159C467.68 376.48 464.96 373.12 461.599 372C458.56 371.041 454.56 372.8 452.16 375.2C449.12 374.4 445.92 374.4 443.04 375.359C437.599 377.28 433.44 382.559 432.799 388.32C432.32 393.12 434.08 397.92 436.799 401.92C439.199 405.28 442.08 408.159 445.12 411.041C428.64 488 344.16 501.441 344.16 501.441L351.999 532.48C432.96 512.48 455.199 448 461.28 417.6C461.92 417.6 462.72 417.6 463.36 417.6C469.44 417.12 475.199 414.4 479.04 409.6C483.04 404.641 484.48 398.08 482.56 392.48Z" fill="#E35359"/>
<path d="M471.518 402.72C471.518 402.72 471.679 402.88 471.679 403.2C471.679 403.52 471.838 404 471.838 404.641C471.679 405.92 471.038 407.841 468.959 408.959C466.879 410.08 463.679 409.92 461.438 407.841C459.198 405.759 458.079 402.241 458.879 398.72C459.679 395.359 461.759 392.48 463.998 390.559C466.238 388.641 468.798 387.52 470.879 387.041C473.118 386.559 474.879 386.559 476.159 386.72C476.798 386.72 477.279 386.88 477.598 387.041C477.918 387.2 478.079 387.2 478.079 387.2C478.079 387.359 475.359 386.559 471.198 387.68C469.118 388.32 466.718 389.441 464.638 391.2C462.559 393.12 460.638 395.68 459.838 398.88C459.038 402.08 459.998 405.28 462.079 407.2C464.159 409.12 467.038 409.28 468.798 408.32C470.718 407.359 471.518 405.6 471.679 404.48C471.679 403.359 471.518 402.72 471.518 402.72Z" fill="#263238"/>
<path d="M450.24 374.4C450.24 374.4 450.4 374.4 450.72 374.4C451.04 374.4 451.52 374.559 452 374.72C453.12 375.041 454.72 375.841 456.16 377.28C457.6 378.72 459.2 380.959 459.84 383.68C460.16 385.12 460.16 386.559 459.84 388.159C459.52 389.759 458.56 391.2 456.96 392C455.679 392.8 454.24 393.12 452.8 393.28C451.36 393.441 450.079 393.441 448.8 393.28C446.24 392.96 444 392 442.24 390.88L442.72 390.559C443.679 392.8 444.16 394.72 444.479 396.159C444.64 397.441 444.8 398.241 444.64 398.241C444.479 398.241 444.16 395.2 442.079 390.88L441.6 389.92L442.56 390.4C444.16 391.359 446.4 392.32 448.8 392.48C451.2 392.8 454.079 392.641 456.479 391.2C457.76 390.4 458.56 389.28 458.879 387.841C459.2 386.4 459.2 385.12 458.879 383.841C458.4 381.28 456.96 379.2 455.52 377.759C454.079 376.32 452.64 375.52 451.679 375.041C450.879 374.559 450.24 374.4 450.24 374.4Z" fill="#263238"/>
<path d="M459.68 385.441C459.519 385.441 460.319 382.88 463.039 381.12C465.76 379.52 468.32 379.68 468.32 379.841C468.32 380.159 465.92 380.32 463.36 381.759C461.119 383.359 460 385.6 459.68 385.441Z" fill="#263238"/>
<path d="M458.399 401.759C458.558 401.759 457.918 402.72 456.479 403.041C455.838 403.2 454.879 403.2 453.918 402.72C452.958 402.24 452.158 401.441 451.679 400.48C450.558 398.4 451.038 396.32 451.358 395.04C451.838 393.759 452.318 392.959 452.479 393.12C452.638 393.12 452.318 393.92 451.999 395.2C451.679 396.48 451.518 398.4 452.479 400C452.958 400.8 453.599 401.44 454.238 401.92C454.879 402.24 455.679 402.4 456.319 402.4C457.758 402.241 458.399 401.6 458.399 401.759Z" fill="#263238"/>
<g opacity="0.3">
<g opacity="0.3">
<path opacity="0.3" d="M442.879 391.359C443.999 393.759 446.399 395.52 449.119 395.84C448.799 398.4 448.799 401.12 450.079 403.359C451.359 405.6 454.399 406.88 456.638 405.759C457.119 407.68 458.719 409.28 460.479 410.08C462.399 410.72 464.638 410.559 466.238 409.44C462.238 409.12 458.719 405.759 458.238 401.6C457.119 402.559 455.199 402.559 453.759 401.759C452.479 400.959 451.679 399.359 451.519 397.759C451.359 396.159 451.838 394.559 452.479 393.12C449.119 393.759 445.438 392.959 442.559 391.2" fill="black"/>
</g>
</g>
<path d="M236.319 690.72C241.44 712.32 246.399 733.92 251.519 755.359C243.679 754.241 235.519 755.68 228.64 759.68C226.24 760.96 223.679 763.68 224.958 766.08C225.919 768 228.64 768.16 230.719 768C247.519 767.2 264.479 768.641 281.279 768L280.319 702.4" fill="#E35359"/>
<path d="M327.518 690.72C322.398 712.32 317.438 733.92 312.318 755.359C320.159 754.241 328.318 755.68 335.198 759.68C337.598 760.96 340.159 763.68 338.879 766.08C337.918 768 335.198 768.16 333.118 768C316.318 767.2 299.359 768.641 282.559 768L283.518 702.4" fill="#E35359"/>
<g opacity="0.3">
<path opacity="0.3" d="M239.838 705.759L241.919 714.241C255.678 715.041 268.958 717.12 280.638 714.559L280.478 707.041C280.478 707.041 266.238 706.241 258.078 704.159L261.758 711.04C254.238 710.08 247.038 708.32 239.838 705.759Z" fill="black"/>
</g>
<g opacity="0.3">
<path opacity="0.3" d="M283.197 714.559C283.197 714.559 296.797 718.241 309.918 716C320.958 714.08 322.558 712.159 322.558 712.159L325.918 697.6C325.918 697.6 310.558 706.4 286.718 701.6L299.197 706.72H283.358L283.197 714.559Z" fill="black"/>
</g>
<path d="M389.118 607.68C383.837 596.959 377.118 586.88 369.437 577.759C369.437 577.759 369.437 577.759 369.437 577.6C373.598 578.4 377.918 578.72 382.237 578.559C374.718 572.959 368.318 565.92 363.518 558.08C356.957 533.92 349.918 509.6 349.757 484.959L203.037 483.841C198.557 515.52 192.798 539.841 182.718 570.241C172.637 600.641 161.118 636.8 181.278 666.559C184.957 671.841 189.598 676.32 194.878 680.159C201.118 686.88 207.837 693.12 215.037 698.72C213.757 695.68 212.637 692.48 211.357 689.441C212.157 689.759 212.957 690.241 213.918 690.559C228.157 702.08 245.757 709.6 263.998 712C263.037 709.759 262.237 707.68 261.278 705.441C282.237 709.12 303.678 708 322.718 699.041C358.398 682.241 377.118 662.4 381.598 636.32C383.837 623.041 381.278 611.2 377.278 599.359C381.278 602.08 385.118 604.959 389.118 607.68Z" fill="#E35359"/>
<path d="M340.639 615.041C340.639 615.041 340.479 615.041 339.999 615.041C339.679 615.041 339.039 614.88 338.239 614.72C336.799 614.4 334.718 613.759 332.159 612.959C327.039 611.041 320.318 607.52 314.079 601.28L314.718 600.8C315.359 602.559 316.159 604.48 316.959 606.4C318.239 609.92 319.679 613.28 320.799 616.32L321.759 618.72L320.159 616.8C315.518 611.2 311.679 606.241 308.639 602.559C307.359 600.8 306.239 599.52 305.439 598.4C304.639 597.441 304.318 596.8 304.318 596.8C304.318 596.8 304.799 597.28 305.599 598.241C306.559 599.2 307.679 600.641 308.959 602.241C311.999 605.759 315.999 610.72 320.639 616.32L319.999 616.64C318.718 613.6 317.439 610.241 316.159 606.72C315.359 604.8 314.718 602.88 313.918 601.12L313.279 599.359L314.718 600.8C320.799 606.88 327.359 610.559 332.318 612.48C334.879 613.44 336.799 614.08 338.239 614.559C339.839 614.72 340.639 614.88 340.639 615.041Z" fill="#263238"/>
<path d="M213.759 585.92C213.6 585.92 212.959 584.48 212.159 582.08C211.359 579.68 210.559 576.159 210.24 572.32C209.92 568.48 210.24 564.8 210.559 562.241C211.04 559.68 211.52 558.24 211.52 558.24C211.679 558.24 211.359 559.84 211.04 562.4C210.72 564.959 210.559 568.48 210.879 572.32C211.2 576.159 212 579.52 212.64 582.08C213.44 584.48 213.92 585.92 213.759 585.92Z" fill="#263238"/>
<path d="M218.72 573.441C218.56 573.441 218.24 572.32 217.76 570.559C217.28 568.8 216.96 566.08 216.801 563.2C216.801 560.32 217.12 557.759 217.44 555.841C217.92 553.92 218.24 552.959 218.401 552.959C218.72 552.959 217.44 557.6 217.601 563.2C217.76 568.959 219.04 573.441 218.72 573.441Z" fill="#263238"/>
<path d="M270.881 667.359C270.881 667.359 270.56 667.359 269.92 667.2C269.281 667.041 268.481 666.88 267.36 666.559C265.281 665.92 262.081 664.959 258.4 663.359C251.04 660.32 241.12 654.559 232.32 645.92L232.96 645.441C233.281 645.92 233.6 646.4 233.92 646.88C237.281 651.68 239.52 656.8 241.12 661.6L241.44 662.559L240.64 662.08C232.96 657.6 228 651.68 225.281 647.2C223.84 644.959 223.04 643.041 222.4 641.759C222.081 641.12 221.92 640.64 221.76 640.159C221.6 639.84 221.6 639.68 221.6 639.68C221.6 639.68 221.92 640.32 222.56 641.6C223.2 642.88 224.16 644.8 225.6 646.88C228.481 651.2 233.281 657.12 240.96 661.441L240.32 661.92C238.72 657.12 236.481 652.159 233.281 647.52C232.96 647.041 232.64 646.559 232.32 646.08L232.96 645.6C241.76 654.241 251.36 660 258.72 663.2C262.4 664.8 265.44 665.92 267.52 666.559C268.64 666.88 269.44 667.2 269.92 667.359C270.56 667.2 270.881 667.359 270.881 667.359Z" fill="#263238"/>
<path d="M195.681 518.559C195.681 518.559 195.681 518.72 195.681 518.88C195.681 519.2 195.681 519.52 195.52 520C195.52 520.959 195.199 522.4 195.04 524.159C194.56 527.841 193.599 532.959 191.999 539.359C190.399 545.759 188.32 553.28 185.599 561.6C183.04 569.92 179.999 578.88 177.281 588.48C174.56 598.08 172.481 607.359 171.36 616C170.24 624.641 170.24 632.48 171.04 638.88C171.84 645.441 173.281 650.559 174.56 653.92C175.199 655.68 175.681 656.959 176.16 657.759C176.32 658.241 176.481 658.559 176.64 658.72C176.799 658.88 176.799 659.041 176.799 659.041C176.799 659.041 176.64 658.88 176.64 658.72C176.481 658.4 176.32 658.08 176.16 657.759C175.681 656.959 175.04 655.68 174.399 653.92C172.96 650.559 171.52 645.441 170.56 638.88C169.76 632.32 169.599 624.48 170.72 615.84C171.84 607.2 173.92 597.92 176.64 588.159C179.36 578.559 182.399 569.441 184.96 561.12C187.681 552.8 189.92 545.441 191.52 539.041C193.12 532.641 194.24 527.52 194.72 523.841C195.04 522.08 195.199 520.641 195.36 519.68C195.36 519.2 195.52 518.88 195.52 518.559C195.681 518.559 195.681 518.559 195.681 518.559Z" fill="#263238"/>
<path d="M202.079 674.72C202.079 674.72 201.758 674.4 201.119 673.92C200.479 673.28 199.358 672.48 198.239 671.359C195.839 668.959 192.639 665.28 189.599 660.159C186.558 655.041 183.679 648.48 181.599 640.8C179.679 633.12 178.558 624.32 178.879 615.2C179.199 606.08 180.479 597.441 182.239 589.759C183.999 582.08 185.919 575.2 187.679 569.441C189.439 563.68 191.039 559.2 192.158 556C192.639 554.559 193.119 553.28 193.439 552.32C193.758 551.52 193.919 551.041 193.919 551.041C193.919 551.041 193.758 551.52 193.599 552.32C193.279 553.28 192.958 554.4 192.479 556C191.519 559.2 190.079 563.841 188.319 569.441C186.558 575.2 184.639 582.08 183.039 589.759C181.439 597.441 180.158 606.08 179.839 615.2C179.679 624.32 180.639 632.959 182.558 640.48C184.479 648.159 187.199 654.72 190.239 659.841C193.279 664.959 196.319 668.8 198.558 671.2C199.679 672.48 200.639 673.28 201.279 673.92C201.758 674.4 202.079 674.72 202.079 674.72Z" fill="white"/>
<path d="M216.961 679.68C216.8 679.841 213.28 677.12 209.28 673.759C205.12 670.241 201.92 667.359 202.08 667.2C202.241 667.041 205.761 669.759 209.761 673.12C213.92 676.641 217.12 679.52 216.961 679.68Z" fill="white"/>
<path d="M159.037 230.559C157.917 230.88 128.317 244.48 133.917 283.68C138.878 318.08 159.037 318.88 159.037 318.88L196.957 285.759C196.957 285.759 169.437 282.88 162.398 262.72C155.037 242.4 159.037 230.559 159.037 230.559Z" fill="#455A64"/>
<path d="M175.518 278.08C175.518 278.241 172.798 278.241 168.477 279.2C164.318 280.159 158.557 282.559 153.598 286.88C148.637 291.2 145.598 296.641 143.998 300.8C142.398 304.959 142.077 307.68 141.918 307.52C141.918 307.52 141.918 306.88 142.077 305.6C142.237 304.32 142.718 302.559 143.357 300.48C144.798 296.32 147.837 290.72 152.957 286.241C158.077 281.759 163.998 279.52 168.318 278.559C170.557 278.08 172.318 277.92 173.437 277.92C174.877 277.92 175.518 277.92 175.518 278.08Z" fill="#263238"/>
<path d="M164.319 265.6C164.319 265.76 162.078 265.28 158.558 265.6C155.037 265.92 150.078 267.041 145.598 269.92C141.119 272.8 138.078 276.8 136.319 280C134.558 283.2 134.078 285.28 133.918 285.28C133.918 285.28 133.918 284.641 134.238 283.68C134.558 282.72 135.038 281.28 135.837 279.68C137.437 276.48 140.478 272.16 145.119 269.12C149.758 266.08 154.878 264.96 158.398 264.8C160.158 264.8 161.598 264.8 162.719 264.96C163.678 265.441 164.319 265.6 164.319 265.6Z" fill="#263238"/>
<path d="M135.357 258.72C135.357 258.72 135.357 258.241 135.678 257.6C135.998 256.959 136.478 256 137.278 254.88C138.717 252.8 141.598 250.241 145.437 248.959C149.278 247.68 153.117 248.48 155.517 249.441C156.798 249.92 157.598 250.559 158.237 251.041C158.878 251.52 159.037 251.841 159.037 251.841C158.878 252 157.757 250.88 155.357 250.08C152.957 249.28 149.437 248.48 145.757 249.759C142.078 251.041 139.357 253.28 137.757 255.2C136.157 257.28 135.517 258.72 135.357 258.72Z" fill="#263238"/>
<path d="M151.678 237.28C151.678 237.28 150.878 238.08 149.598 239.68C148.159 241.12 146.238 243.52 144.318 246.559C140.318 252.641 135.998 262.08 135.518 273.28C135.038 284.48 138.398 294.4 141.759 300.641C143.518 303.841 145.118 306.241 146.398 308C147.678 309.6 148.318 310.559 148.318 310.559C148.318 310.559 148.159 310.4 147.678 309.92C147.359 309.441 146.718 308.959 146.078 308.159C144.798 306.559 143.038 304.16 141.118 300.96C137.438 294.56 133.918 284.641 134.558 273.28C135.038 261.92 139.518 252.32 143.838 246.241C145.918 243.2 147.998 240.96 149.438 239.52C150.078 238.72 150.718 238.241 151.198 237.92C151.359 237.441 151.518 237.28 151.678 237.28Z" fill="#FAFAFA"/>
<path d="M383.36 233.92C384.48 234.241 414.08 247.841 408.48 287.041C403.519 321.441 383.36 322.241 383.36 322.241L345.439 289.12C345.439 289.12 372.96 286.241 379.999 266.08C387.36 245.759 383.36 233.92 383.36 233.92Z" fill="#455A64"/>
<path d="M366.879 281.441C366.879 281.441 367.52 281.28 368.8 281.441C370.079 281.441 371.839 281.6 373.92 282.08C378.239 282.88 384.159 285.28 389.279 289.76C394.4 294.241 397.439 299.841 398.879 304C399.52 306.08 400 307.841 400.159 309.12C400.32 310.4 400.32 311.041 400.32 311.041C400.159 311.041 399.839 308.32 398.239 304.32C396.639 300.32 393.6 294.88 388.639 290.56C383.679 286.241 377.92 283.841 373.759 282.88C369.6 281.441 366.72 281.6 366.879 281.441Z" fill="#263238"/>
<path d="M378.879 269.12C378.879 269.12 379.359 268.96 380.319 268.8C381.279 268.641 382.719 268.48 384.479 268.641C387.999 268.641 392.959 269.92 397.44 272.96C401.919 276 404.959 280.16 406.399 283.36C407.199 284.96 407.679 286.241 407.84 287.2C408.159 288.16 408.159 288.641 408.159 288.641C407.999 288.641 407.519 286.56 405.919 283.52C404.319 280.48 401.44 276.48 396.959 273.6C392.64 270.56 387.838 269.28 384.319 269.12C381.119 268.8 378.879 269.28 378.879 269.12Z" fill="#263238"/>
<path d="M406.88 262.08C406.719 262.08 406.08 260.641 404.48 258.72C402.88 256.8 400.16 254.559 396.48 253.28C392.799 252 389.28 252.8 386.88 253.6C384.48 254.4 383.199 255.52 383.199 255.359C383.199 255.359 383.36 255.041 383.999 254.559C384.64 254.08 385.44 253.6 386.719 252.959C389.119 252 392.799 251.041 396.799 252.48C400.64 253.759 403.519 256.159 404.96 258.4C405.76 259.52 406.24 260.32 406.56 261.12C406.88 261.6 407.04 261.92 406.88 262.08Z" fill="#263238"/>
<path d="M386.079 237.441C386.079 237.441 386.399 238.08 386.719 239.2C386.879 239.841 387.199 240.48 387.36 241.441C387.519 242.241 387.84 243.359 387.84 244.48C387.999 245.6 388.16 246.88 388.16 248.159C388.319 249.441 388.16 250.88 388.16 252.32C387.999 255.359 387.519 258.559 386.56 261.759C385.599 265.12 384.16 268 382.719 270.72C381.919 272 381.279 273.28 380.479 274.241C379.679 275.359 378.879 276.32 378.24 277.12C377.599 278.08 376.799 278.72 376.16 279.359C375.519 280 375.04 280.48 374.399 280.959C373.44 281.759 372.96 282.241 372.799 282.08C372.64 281.92 374.879 280.159 377.599 276.8C378.24 276 379.04 275.041 379.679 273.92C380.479 272.8 381.119 271.68 381.919 270.4C383.36 267.841 384.64 264.8 385.599 261.6C386.56 258.4 387.04 255.2 387.36 252.32C387.36 250.88 387.519 249.441 387.519 248.159C387.519 246.88 387.36 245.6 387.36 244.48C386.719 240.159 385.919 237.441 386.079 237.441Z" fill="#FAFAFA"/>
<path d="M247.84 256.48C247.84 256.48 242.88 257.92 244.96 237.92L262.08 256.48C262.08 256.48 255.04 244.959 253.28 235.041C253.28 235.041 274.88 255.041 282.4 256.48C289.919 257.92 341.44 260.8 371.36 286.4C401.44 312.159 415.04 337.12 418.24 364C423.519 407.68 415.68 444.959 394.88 469.92L394.24 462.72C394.24 462.72 372.16 494.88 338.56 504.159C304.96 513.441 205.6 504.159 205.6 504.159C205.6 504.159 149.919 489.12 130.56 445.6C111.2 402.08 121.92 395.52 121.92 395.52L113.6 403.359C113.6 403.359 111.36 340.641 167.68 296.159C212 261.441 247.84 256.48 247.84 256.48Z" fill="#E35359"/>
<path d="M355.839 497.28C355.839 497.28 355.679 497.441 355.518 497.441C355.198 497.6 354.879 497.759 354.398 498.08C353.439 498.559 351.998 499.359 349.918 500.32C346.079 502.241 340.318 504.8 332.959 507.52C325.598 510.241 316.639 513.12 306.239 514.88C301.118 515.841 295.518 516.32 289.598 516.48C283.839 516.48 277.759 516.159 271.518 514.72L271.839 513.92C276.318 516.959 280.959 520.32 285.759 523.52L287.518 524.641L285.439 524.159C284.318 523.841 283.039 523.68 281.759 523.359C270.239 520.8 259.039 518.559 248.798 516.32L249.118 515.68C251.839 518.4 254.398 521.12 256.798 523.841L257.759 524.8L256.479 524.48C238.239 520 223.679 513.759 213.759 508.641C208.798 506.08 204.959 503.841 202.398 502.4C201.118 501.6 200.159 500.959 199.518 500.641C199.198 500.48 199.039 500.32 198.718 500.159C198.559 500 198.398 500 198.559 500C198.559 500 198.718 500 198.879 500.159C199.039 500.32 199.359 500.48 199.679 500.641C200.318 501.12 201.439 501.6 202.718 502.4C205.279 503.841 209.118 506.08 214.079 508.48C223.998 513.441 238.559 519.68 256.639 524L256.318 524.641C253.759 522.08 251.198 519.359 248.479 516.48L247.518 515.52L248.798 515.841C259.198 518.08 270.239 520.48 281.759 522.88C283.039 523.2 284.318 523.359 285.439 523.68L285.118 524.48C280.318 521.12 275.679 517.92 271.198 514.72L269.598 513.6L271.518 514.08C277.598 515.359 283.679 515.841 289.439 515.841C295.198 515.841 300.798 515.2 305.918 514.4C316.318 512.641 325.279 509.759 332.639 507.2C339.998 504.48 345.759 502.08 349.598 500.32C351.518 499.359 352.959 498.72 354.079 498.241C354.559 498.08 354.879 497.92 355.198 497.759C355.679 497.441 355.839 497.28 355.839 497.28Z" fill="#263238"/>
<g opacity="0.3">
<g opacity="0.3">
<path opacity="0.3" d="M355.841 497.28C328.8 510.72 298.4 520.159 271.841 514.4C276.48 517.6 281.121 520.8 285.76 524.159C273.441 521.6 261.28 518.88 248.96 516.32C251.521 519.041 254.08 521.759 256.641 524.48C236.16 519.52 216.48 511.359 198.721 500.32C198.721 500.32 228 530.88 261.76 532.48C317.6 535.041 355.841 497.28 355.841 497.28Z" fill="black"/>
</g>
</g>
<path d="M169.28 454.241C169.28 454.241 168.96 454.08 168.319 453.6C167.68 453.12 166.719 452.641 165.599 451.841C163.199 450.241 159.999 447.68 156.48 444C152.799 440.48 148.96 435.68 145.599 429.76C142.24 424 139.199 416.959 137.599 409.441L138.399 409.28C138.399 409.441 138.399 409.6 138.399 409.92C138.719 418.56 138.88 426.559 139.04 433.76V435.68L138.24 433.92C134.24 424.96 132.64 416.8 132 411.041C131.68 408.16 131.68 405.92 131.52 404.32C131.52 403.52 131.52 402.88 131.52 402.56C131.52 402.08 131.52 401.92 131.52 401.92C131.52 401.92 131.52 402.08 131.52 402.56C131.52 403.041 131.52 403.68 131.68 404.32C131.84 405.92 132 408.16 132.32 411.041C133.12 416.8 134.72 424.8 138.719 433.6L137.919 433.76C137.76 426.559 137.44 418.4 137.119 409.92C137.119 409.759 137.119 409.441 137.119 409.28L137.919 409.12C139.68 416.641 142.399 423.52 145.76 429.28C149.119 435.041 152.96 439.841 156.48 443.36C159.999 447.041 163.199 449.6 165.44 451.2C166.56 452 167.519 452.641 168.16 453.12C168.96 454.08 169.28 454.241 169.28 454.241Z" fill="#263238"/>
<path d="M390.559 414.72C390.559 414.72 390.718 414.4 391.038 413.92C391.518 413.441 391.998 412.641 392.638 411.841C393.278 410.88 393.918 409.76 394.718 408.32C395.038 407.68 395.359 406.88 395.838 406.08C395.998 405.6 396.159 405.28 396.478 404.8C396.638 404.32 396.798 403.841 396.959 403.52C399.838 396.16 401.598 385.28 401.438 373.12C401.438 371.36 401.438 369.76 401.278 368L401.118 364.8L402.078 367.841C403.198 371.041 404.159 374.08 405.118 376.8H404.318C405.759 372.8 406.398 368.96 406.238 365.441C406.238 361.92 405.598 358.88 404.798 356.32C403.198 351.36 401.438 348.96 401.598 348.8C401.598 348.8 401.759 348.96 401.918 349.28C402.078 349.6 402.398 350.08 402.718 350.72C403.518 352 404.318 353.76 405.278 356.32C406.078 358.72 406.878 361.92 406.878 365.441C407.038 368.96 406.398 373.12 404.959 377.12L404.638 378.241L404.318 377.12C403.359 374.241 402.238 371.2 401.278 368.16L402.078 368C402.238 369.6 402.238 371.36 402.238 373.12C402.398 385.28 400.478 396.32 397.438 403.68C397.278 404.16 397.118 404.641 396.959 405.12C396.798 405.6 396.478 405.92 396.318 406.4C395.998 407.2 395.518 408 395.198 408.641C394.398 409.92 393.598 411.2 392.959 412C392.318 412.8 391.677 413.441 391.359 413.92C390.718 414.4 390.559 414.72 390.559 414.72Z" fill="#263238"/>
<path d="M319.679 295.68C319.679 295.68 319.36 295.68 318.56 295.68C317.76 295.68 316.799 295.68 315.36 295.52C312.639 295.359 308.639 295.041 303.679 293.92C293.919 292 280.639 287.359 268.479 278.08L268.96 277.441C269.119 277.6 269.119 277.6 269.279 277.759C274.56 283.041 279.519 288.159 283.999 292.8L284.799 293.759L283.519 293.441C278.56 292.48 274.239 290.559 270.719 288.32C267.199 286.08 264.479 283.68 262.399 281.441C260.319 279.2 259.039 277.28 258.079 275.841C257.599 275.2 257.439 274.559 257.119 274.241C256.96 273.92 256.799 273.6 256.799 273.6C256.799 273.6 257.279 274.4 258.239 275.68C259.199 276.959 260.639 278.88 262.719 281.12C264.799 283.2 267.519 285.6 271.039 287.68C274.56 289.759 278.879 291.52 283.679 292.48L283.36 293.12C278.719 288.48 273.76 283.359 268.479 278.08C268.319 277.92 268.319 277.92 268.16 277.759L268.639 277.12C280.639 286.241 293.76 291.041 303.36 293.12C308.16 294.241 312.16 294.72 314.879 294.88C316.319 295.041 317.279 295.041 318.079 295.2C319.36 295.68 319.679 295.68 319.679 295.68Z" fill="#263238"/>
<path d="M213.919 275.041C213.919 275.041 213.76 275.041 213.599 275.2C213.28 275.359 212.96 275.52 212.48 275.68C211.519 276 209.919 276.48 208.16 277.28C204.319 278.72 198.88 280.959 192.48 284.159C179.68 290.72 162.88 302.241 148.799 319.2C134.72 336.159 126.56 354.88 122.56 368.641C120.48 375.52 119.36 381.28 118.72 385.28C118.4 387.2 118.24 388.8 117.92 389.92C117.92 390.4 117.76 390.72 117.76 391.041C117.76 391.359 117.6 391.52 117.6 391.52C117.6 391.52 117.6 391.359 117.6 391.041C117.6 390.72 117.6 390.4 117.76 389.759C117.92 388.641 117.92 387.2 118.4 385.12C118.88 381.12 120 375.359 122.08 368.32C124 361.28 127.04 353.12 131.2 344.641C135.519 336 141.119 327.041 148.16 318.559C155.199 310.08 163.04 302.88 170.719 296.959C178.399 291.2 185.76 286.72 192.319 283.52C198.88 280.32 204.319 278.08 208.16 276.8C210.08 276.159 211.519 275.68 212.64 275.359C213.119 275.2 213.44 275.041 213.76 275.041H213.919Z" fill="#FAFAFA"/>
<path d="M141.441 450.241C141.441 450.241 140.802 449.759 139.841 448.641C139.361 448.159 138.722 447.52 138.081 446.559C137.441 445.759 136.641 444.8 135.841 443.68C134.241 441.6 132.641 438.88 130.881 435.841C129.281 432.8 127.681 429.28 126.561 425.44C125.281 421.6 124.481 417.759 124.001 414.4C123.521 410.88 123.361 407.841 123.361 405.12C123.361 403.84 123.521 402.559 123.521 401.6C123.521 400.48 123.681 399.68 123.841 398.88C124.001 397.44 124.161 396.641 124.161 396.641C124.161 396.641 124.161 397.44 124.161 398.88C124.161 399.68 124.001 400.48 124.001 401.6C124.001 402.559 123.841 403.84 124.001 405.12C124.001 407.68 124.321 410.88 124.801 414.24C125.281 417.6 126.081 421.28 127.361 425.12C128.641 428.959 130.081 432.32 131.681 435.52C133.281 438.559 134.881 441.28 136.322 443.359C136.961 444.48 137.761 445.441 138.402 446.241C139.041 447.041 139.522 447.841 140.002 448.32C140.961 449.441 141.441 450.08 141.441 450.241Z" fill="#FAFAFA"/>
<path d="M154.721 465.12C154.721 465.28 153.121 464.959 151.521 463.841C149.921 462.72 148.96 461.441 149.28 461.28C149.441 461.12 150.56 462.08 152 463.2C153.441 464.32 154.721 464.959 154.721 465.12Z" fill="#FAFAFA"/>
<path d="M251.999 259.041C251.84 259.2 248.64 256.48 246.719 251.84C244.799 247.2 245.279 242.88 245.599 243.04C245.919 243.04 245.76 247.04 247.519 251.52C249.279 256 252.16 258.88 251.999 259.041Z" fill="#FAFAFA"/>
<g opacity="0.3">
<g opacity="0.3">
<path opacity="0.3" d="M237.437 436.32C238.397 434.72 239.356 433.12 240.317 431.52C239.997 432.48 240.477 433.441 240.956 434.08C241.597 434.88 242.397 435.359 243.197 435.68C244.797 436.641 246.877 437.28 248.477 436.48C250.077 435.52 250.556 433.28 250.077 431.52C249.756 430.08 249.117 428.641 248.637 427.2C248.317 425.759 248.156 424.159 248.956 422.88C249.917 421.441 251.677 420.8 253.277 420.32C259.517 418.559 265.917 417.759 272.317 418.24C278.717 418.88 285.117 420.959 290.077 424.959C289.597 422.72 287.677 421.12 285.597 419.841C277.277 414.88 267.037 413.28 257.756 416C248.477 418.72 240.477 425.6 237.117 434.559" fill="black"/>
</g>
</g>
<path d="M241.918 427.841C242.557 430.559 243.998 432.959 246.077 434.88C246.877 435.52 247.998 436.16 248.798 435.68C249.918 435.2 249.918 433.759 249.598 432.48C248.957 429.12 247.837 425.92 245.918 423.041" fill="#FAFAFA"/>
<path d="M295.678 427.841C295.038 430.559 293.599 432.959 291.518 434.88C290.718 435.52 289.599 436.16 288.799 435.68C287.678 435.2 287.678 433.759 287.999 432.48C288.638 429.12 289.758 425.92 291.678 423.041" fill="#FAFAFA"/>
<path d="M303.039 435.04C302.559 435.359 299.679 431.84 293.918 427.359C291.039 425.12 287.518 422.72 283.2 420.8C278.879 418.88 273.918 417.6 268.479 417.28C263.039 417.12 257.918 417.92 253.759 419.68C249.439 421.44 246.079 424 243.679 426.72C238.879 432 238.079 436.64 237.279 436.48C236.959 436.48 236.959 435.2 237.279 433.12C237.759 431.041 238.879 428 241.279 424.8C243.679 421.6 247.2 418.4 252 416.159C256.8 413.92 262.559 412.8 268.479 413.12C274.4 413.441 280 415.04 284.639 417.28C289.279 419.52 292.959 422.4 295.679 424.959C301.439 430.4 303.518 434.72 303.039 435.04Z" fill="#263238"/>
<g opacity="0.3">
<g opacity="0.3">
<path opacity="0.3" d="M281.76 455.84C282.079 456.32 280.64 457.6 277.92 459.041C275.199 460.32 271.199 461.6 266.56 461.759C261.92 461.92 257.76 461.12 255.04 459.841C252.16 458.72 250.72 457.44 251.04 456.959C251.52 455.84 258.24 457.92 266.56 457.441C274.72 457.28 281.12 454.72 281.76 455.84Z" fill="black"/>
</g>
</g>
<path d="M207.682 337.92C246.882 351.041 287.682 352.48 330.561 339.041C330.561 339.041 322.721 395.2 269.282 398.241C215.841 401.28 207.682 337.92 207.682 337.92Z" fill="#FAFAFA"/>
<path d="M248.479 347.52C246.399 360.959 248.799 373.6 254.719 385.92C256.319 389.12 258.24 392.32 260.959 394.559C263.84 396.8 267.679 397.92 271.04 396.48C274.24 395.2 276.319 391.841 277.759 388.641C284.159 374.72 284.799 363.359 285.44 348C273.759 351.2 261.44 350.72 248.479 347.52Z" fill="#263238"/>
<g opacity="0.3">
<g opacity="0.3">
<path opacity="0.3" d="M322.717 368.641C322.878 368.8 322.237 370.559 320.478 373.759C318.717 376.8 315.678 380.959 311.037 385.441C308.798 387.68 305.917 389.759 302.878 392C299.678 394.08 296.157 396 292.317 397.759C284.478 401.12 275.037 403.2 265.278 402.72C255.357 402.241 246.237 399.2 238.717 395.2C234.878 393.28 231.678 390.88 228.637 388.48C225.757 386.08 223.198 383.68 221.117 381.28C216.957 376.48 214.237 372 212.798 368.8C211.357 365.6 210.878 363.68 211.037 363.52C211.357 363.359 212.317 365.12 214.237 368C216.157 370.88 219.037 374.88 223.357 379.359C225.437 381.6 227.998 383.68 230.878 385.92C233.757 388 236.957 390.08 240.637 392C247.837 395.68 256.317 398.241 265.598 398.72C274.878 399.041 283.678 397.28 291.037 394.4C294.717 392.959 298.237 391.2 301.278 389.28C304.317 387.359 307.037 385.441 309.437 383.52C314.078 379.52 317.437 375.841 319.517 373.12C321.278 370.08 322.398 368.48 322.717 368.641Z" fill="black"/>
</g>
</g>
<g opacity="0.3">
<g opacity="0.3">
<path opacity="0.3" d="M318.559 329.6C316.959 329.12 315.198 329.92 313.598 330.72C299.039 338.08 282.239 340.959 265.919 338.88C249.759 336.8 232.959 331.2 220.639 320.48C217.278 322.241 216.478 327.041 217.919 330.559C219.359 334.08 222.559 336.641 225.759 338.559C236.798 345.6 249.759 349.441 262.878 350.559C275.998 351.68 289.119 350.08 301.919 346.88C308.159 345.28 314.719 343.2 318.878 338.241C319.998 336.959 320.798 335.359 320.959 333.759C321.119 332 320.159 330.241 318.559 329.6Z" fill="black"/>
</g>
</g>
<path d="M316.481 329.28C317.121 330.08 312.96 334.72 304.16 339.2C299.841 341.441 294.241 343.52 287.681 344.959C281.281 346.4 273.921 346.88 266.241 346.241C258.56 345.441 251.521 343.52 245.441 340.959C239.36 338.4 234.241 335.359 230.401 332.32C222.56 326.241 219.36 320.959 220.16 320.159C221.121 319.2 225.601 322.88 233.601 327.359C241.601 331.841 253.281 336.641 266.881 337.92C280.481 339.2 292.96 336.641 301.601 333.92C310.56 330.88 315.681 328.159 316.481 329.28Z" fill="#263238"/>
<path d="M260.159 385.759C260.159 385.759 259.84 385.441 259.199 384.8C258.72 384.159 257.92 383.041 257.12 381.759C255.52 379.041 253.759 375.2 252.799 370.559C251.84 365.92 251.679 361.6 251.999 358.559C252.159 356.959 252.32 355.841 252.479 354.88C252.64 354.08 252.799 353.6 252.799 353.6C252.959 353.6 252.64 355.52 252.479 358.559C252.32 361.6 252.479 365.759 253.44 370.4C254.399 374.88 256.159 378.88 257.44 381.44C259.199 384 260.32 385.6 260.159 385.759Z" fill="#FAFAFA"/>
<path d="M343.359 335.68C343.359 335.841 341.599 336.641 338.079 338.08C336.32 338.72 334.238 339.52 331.679 340.32C329.119 341.12 326.238 342.08 323.038 342.88C319.838 343.68 316.32 344.8 312.479 345.441C310.559 345.759 308.638 346.241 306.559 346.72C304.479 347.041 302.399 347.359 300.159 347.841C291.359 349.12 281.759 350.08 271.52 350.08C261.279 350.08 251.679 349.28 242.879 348C238.559 347.2 234.399 346.559 230.559 345.759C228.638 345.28 226.72 344.959 224.959 344.48C223.199 344 221.438 343.52 219.838 343.041C216.638 342.241 213.759 341.28 211.199 340.32C209.92 339.841 208.799 339.52 207.679 339.2C206.559 338.72 205.599 338.4 204.799 338.08C201.279 336.641 199.52 335.841 199.52 335.68C199.679 335.2 207.359 338.241 220.159 341.28C221.759 341.6 223.52 342.08 225.279 342.559C227.038 342.88 228.959 343.2 230.72 343.68C234.559 344.48 238.559 344.959 242.879 345.759C251.52 346.88 261.12 347.52 271.199 347.68C281.279 347.68 290.879 346.88 299.52 345.759C301.599 345.441 303.838 345.12 305.759 344.8C307.838 344.48 309.759 344 311.679 343.68C315.52 343.041 319.038 342.08 322.238 341.441C325.438 340.8 328.32 339.841 330.879 339.2C333.438 338.559 335.52 337.92 337.438 337.28C341.279 336 343.199 335.52 343.359 335.68Z" fill="#263238"/>
<path d="M763.2 768.159C763.2 768.32 600 768.641 398.72 768.641C197.44 768.641 34.2402 768.48 34.2402 768.159C34.2402 768 197.44 767.68 398.72 767.68C600 767.68 763.2 767.841 763.2 768.159Z" fill="#263238"/>
<path d="M317.92 245.76L309.279 206.72L329.92 204.48L336.64 169.76L339.679 212.8L318.559 214.88L317.92 245.76Z" fill="#E35359"/>
<path d="M329.6 250.88L343.04 222.88L356.64 231.52L377.44 213.441L358.56 241.12L344.8 232.32L329.6 250.88Z" fill="#E35359"/>
<path opacity="0.6" d="M317.92 245.76L309.279 206.72L329.92 204.48L336.64 169.76L339.679 212.8L318.559 214.88L317.92 245.76Z" fill="white"/>
<path opacity="0.6" d="M329.6 250.88L343.04 222.88L356.64 231.52L377.44 213.441L358.56 241.12L344.8 232.32L329.6 250.88Z" fill="white"/>
<path d="M526.075 577.966L522.781 577.293C522.808 576.854 522.762 576.451 522.644 576.082C522.528 575.708 522.348 575.373 522.105 575.078C521.862 574.784 521.563 574.534 521.208 574.331C520.856 574.128 520.462 573.982 520.02 573.892C519.222 573.73 518.487 573.785 517.814 574.061C517.143 574.331 516.567 574.808 516.087 575.495C515.609 576.176 515.26 577.05 515.041 578.118C514.817 579.216 514.791 580.172 514.966 580.986C515.144 581.801 515.49 582.459 516.004 582.961C516.517 583.464 517.163 583.795 517.94 583.953C518.376 584.042 518.793 584.066 519.187 584.027C519.586 583.989 519.955 583.889 520.29 583.727C520.628 583.561 520.924 583.338 521.181 583.055C521.441 582.774 521.651 582.436 521.81 582.041L525.102 582.728C524.872 583.418 524.52 584.057 524.045 584.643C523.575 585.227 523.002 585.719 522.325 586.119C521.654 586.514 520.894 586.782 520.045 586.922C519.202 587.058 518.287 587.026 517.299 586.823C515.925 586.542 514.759 585.98 513.804 585.137C512.852 584.295 512.183 583.22 511.798 581.914C511.417 580.608 511.397 579.118 511.74 577.443C512.083 575.762 512.691 574.399 513.563 573.349C514.436 572.299 515.478 571.577 516.686 571.181C517.897 570.781 519.179 570.719 520.533 570.996C521.427 571.178 522.228 571.473 522.939 571.878C523.655 572.287 524.259 572.792 524.754 573.393C525.247 573.991 525.609 574.674 525.839 575.442C526.074 576.211 526.152 577.053 526.075 577.966ZM528.378 575.616L528.927 572.93L541.581 575.516L541.031 578.201L536.314 577.238L533.716 589.958L530.495 589.3L533.095 576.58L528.378 575.616ZM540.516 591.347L543.664 575.942L549.743 577.184C550.91 577.422 551.86 577.849 552.591 578.464C553.324 579.073 553.825 579.815 554.095 580.691C554.372 581.562 554.406 582.509 554.197 583.532C553.987 584.555 553.583 585.414 552.982 586.105C552.381 586.797 551.617 587.276 550.69 587.542C549.768 587.808 548.716 587.82 547.532 587.578L543.658 586.786L544.191 584.176L547.539 584.859C548.166 584.988 548.704 584.985 549.155 584.853C549.61 584.716 549.979 584.476 550.258 584.131C550.544 583.781 550.739 583.354 550.841 582.847C550.947 582.335 550.935 581.868 550.808 581.445C550.685 581.018 550.44 580.657 550.072 580.362C549.705 580.062 549.205 579.849 548.574 579.719L546.377 579.27L543.772 592.014L540.516 591.347ZM555.108 594.33L551.617 593.616L560.083 579.297L564.282 580.154L566.444 596.646L562.954 595.932L561.524 583.258L561.404 583.234L555.108 594.33ZM556.127 588.23L564.372 589.914L563.852 592.457L555.608 590.772L556.127 588.23ZM568.298 597.026L571.447 581.619L574.705 582.284L573.405 588.641L580.018 589.992L581.317 583.635L584.567 584.3L581.418 599.705L578.168 599.042L579.468 592.678L572.856 591.327L571.556 597.691L568.298 597.026ZM587.252 584.849L590.502 585.512L588.522 595.201L588.65 595.228L597.287 586.899L600.139 587.481L596.99 602.888L593.733 602.223L595.714 592.526L595.602 592.503L586.925 600.831L584.104 600.255L587.252 584.849ZM615.056 603.868L613.591 610.073L610.493 609.441L611.236 605.799L610.154 605.577L610.685 602.974L615.056 603.868ZM599.682 603.438L602.829 588.031L605.959 588.67L603.345 601.459L609.755 602.769L612.368 589.981L615.536 590.628L612.387 606.034L599.682 603.438ZM619.156 607.418L615.666 606.704L624.132 592.384L628.329 593.242L630.493 609.734L627.002 609.02L625.571 596.346L625.451 596.322L619.156 607.418ZM620.175 601.318L628.42 603.001L627.901 605.545L619.655 603.859L620.175 601.318ZM495.139 608.281L498.286 592.876L501.544 593.541L500.245 599.897L506.858 601.249L508.156 594.892L511.406 595.555L508.258 610.962L505.008 610.299L506.309 603.934L499.695 602.582L498.395 608.947L495.139 608.281ZM510.944 611.511L514.091 596.105L524.472 598.226L523.924 600.912L516.799 599.455L516.049 603.127L522.64 604.474L522.091 607.159L515.501 605.812L514.749 609.492L521.904 610.953L521.355 613.639L510.944 611.511ZM528.817 615.164L531.966 599.757L535.222 600.423L533.924 606.78L540.536 608.131L541.835 601.774L545.085 602.438L541.937 617.845L538.687 617.181L539.987 610.816L533.375 609.465L532.075 615.83L528.817 615.164ZM547.278 618.936L543.787 618.223L552.254 603.903L556.452 604.761L558.614 621.253L555.124 620.539L553.694 607.865L553.574 607.841L547.278 618.936ZM548.297 612.835L556.543 614.52L556.022 617.064L547.778 615.378L548.297 612.835ZM563.617 606.224L566.867 606.889L564.887 616.578L565.014 616.604L573.652 608.276L576.504 608.858L573.355 624.265L570.098 623.599L572.079 613.903L571.967 613.88L563.29 622.208L560.468 621.631L563.617 606.224ZM572.385 603.816L574.62 604.273C574.428 605.184 573.939 605.85 573.154 606.269C572.372 606.689 571.413 606.784 570.275 606.551C569.131 606.318 568.283 605.854 567.729 605.161C567.177 604.468 566.993 603.665 567.179 602.753L569.398 603.205C569.322 603.551 569.37 603.884 569.539 604.207C569.713 604.53 570.074 604.746 570.62 604.858C571.152 604.968 571.56 604.909 571.847 604.685C572.133 604.462 572.312 604.172 572.385 603.816ZM574.452 628.359L575.741 622.049L576.787 622.262C577.195 622.08 577.595 621.785 577.987 621.378C578.379 620.968 578.766 620.37 579.145 619.585C579.525 618.796 579.898 617.739 580.263 616.413L582.031 609.988L592.224 612.07L589.606 624.881L591.291 625.226L590.005 631.523L586.875 630.882L587.632 627.182L578.341 625.284L577.582 629L574.452 628.359ZM580.549 623.031L586.477 624.242L588.545 614.116L584.416 613.273L583.393 617.053C583.12 618.057 582.828 618.938 582.516 619.695C582.209 620.453 581.89 621.105 581.559 621.654C581.233 622.199 580.897 622.658 580.549 623.031ZM592.741 628.226L595.89 612.819L606.271 614.941L605.722 617.627L598.598 616.17L597.848 619.842L604.437 621.188L603.889 623.874L597.3 622.527L596.547 626.205L603.701 627.668L603.152 630.354L592.741 628.226ZM605.712 630.877L608.86 615.47L612.118 616.135L610.818 622.492L617.432 623.843L618.731 617.486L621.981 618.151L618.832 633.557L615.582 632.893L616.882 626.53L610.27 625.178L608.97 631.542L605.712 630.877ZM624.172 634.649L620.682 633.935L629.15 619.616L633.347 620.473L635.51 636.965L632.02 636.251L630.589 623.577L630.468 623.553L624.172 634.649ZM625.193 628.549L633.437 630.234L632.917 632.776L624.672 631.091L625.193 628.549Z" fill="white"/>
</svg>
