<svg width="65" height="65" viewBox="0 0 65 65" fill="none" xmlns="http://www.w3.org/2000/svg">
<path d="M32.5 0L39.2288 11.7907L51.603 6.20695L50.1163 19.701L63.4093 22.4569L54.275 32.5L63.4093 42.5431L50.1163 45.299L51.603 58.7931L39.2288 53.2093L32.5 65L25.7712 53.2093L13.397 58.7931L14.8837 45.299L1.59066 42.5431L10.725 32.5L1.59066 22.4569L14.8837 19.701L13.397 6.20695L25.7712 11.7907L32.5 0Z" fill="#333333"/>
<path d="M26.4148 41H38.858V37.983H31.5284V37.8636L34.0767 35.3665C37.6648 32.0938 38.6278 30.4574 38.6278 28.4716C38.6278 25.446 36.1562 23.3068 32.4148 23.3068C28.75 23.3068 26.2358 25.4972 26.2443 28.9233H29.7472C29.7386 27.2528 30.7955 26.2301 32.3892 26.2301C33.9233 26.2301 35.0653 27.1847 35.0653 28.7188C35.0653 30.108 34.2131 31.0625 32.6278 32.5881L26.4148 38.3409V41Z" fill="white"/>
</svg>
