<svg width="65" height="65" viewBox="0 0 65 65" fill="none" xmlns="http://www.w3.org/2000/svg">
<path d="M32.5 0L39.2288 11.7907L51.603 6.20695L50.1163 19.701L63.4093 22.4569L54.275 32.5L63.4093 42.5431L50.1163 45.299L51.603 58.7931L39.2288 53.2093L32.5 65L25.7712 53.2093L13.397 58.7931L14.8837 45.299L1.59066 42.5431L10.725 32.5L1.59066 22.4569L14.8837 19.701L13.397 6.20695L25.7712 11.7907L32.5 0Z" fill="#333333"/>
<path d="M25.1506 37.9318H33.5284V41H37.0568V37.9318H39.2216V34.9744H37.0568V23.5455H32.4375L25.1506 35.0256V37.9318ZM33.5966 34.9744H28.8665V34.8381L33.4602 27.5682H33.5966V34.9744Z" fill="white"/>
</svg>
