<svg width="65" height="65" viewBox="0 0 65 65" fill="none" xmlns="http://www.w3.org/2000/svg">
<path d="M32.5 0L39.2288 11.7907L51.603 6.20695L50.1163 19.701L63.4093 22.4569L54.275 32.5L63.4093 42.5431L50.1163 45.299L51.603 58.7931L39.2288 53.2093L32.5 65L25.7712 53.2093L13.397 58.7931L14.8837 45.299L1.59066 42.5431L10.725 32.5L1.59066 22.4569L14.8837 19.701L13.397 6.20695L25.7712 11.7907L32.5 0Z" fill="#333333"/>
<path d="M32.7898 41.2386C36.6761 41.2386 39.3182 38.7074 39.3097 35.179C39.3182 31.8381 36.983 29.4347 33.8381 29.4347C32.304 29.4347 30.983 30.0739 30.3693 30.9347H30.267L30.7188 26.5625H38.3466V23.5455H27.6761L26.8494 32.75L30.1307 33.3381C30.6676 32.6136 31.7074 32.1619 32.7386 32.1619C34.4943 32.1705 35.7557 33.4403 35.7557 35.2727C35.7557 37.0881 34.5199 38.3409 32.7898 38.3409C31.3239 38.3409 30.1392 37.4205 30.054 36.0653H26.4744C26.5426 39.0824 29.1761 41.2386 32.7898 41.2386Z" fill="white"/>
</svg>
