<?xml version="1.0" encoding="utf-8"?>
<!DOCTYPE svg PUBLIC "-//W3C//DTD SVG 20010904//EN" "http://www.w3.org/TR/2001/REC-SVG-20010904/DTD/svg10.dtd">
<svg version="1.0" xmlns="http://www.w3.org/2000/svg" width="380pt" height="175pt" viewBox="0 0 380 175" style="" preserveAspectRatio="xMidYMid meet">
<g fill="#FF525CFF" stroke="#FF525CFF">
<path d="M 233.981 43.821 L 223.500 49.641 222.998 82.571 C 222.549 112.005 222.295 115.961 220.602 119.843 L 218.709 124.185 203.593 109.093 C 195.279 100.792 188.021 94.000 187.463 94.000 C 185.881 94.000 172.000 108.370 172.000 110.008 C 172.000 110.811 177.063 116.576 183.250 122.819 L 194.500 134.170 183.500 133.789 C 171.671 133.379 168.716 132.422 163.589 127.343 C 159.259 123.052 157.788 118.514 157.113 107.368 L 156.500 97.236 145.288 103.368 L 134.076 109.500 134.049 115.000 C 133.962 132.592 146.416 149.072 164.592 155.418 C 170.696 157.549 196.819 158.607 208.500 157.196 L 216.500 156.229 226.018 165.615 C 231.253 170.777 236.214 175.000 237.043 175.000 C 238.670 175.000 253.000 161.077 253.000 159.496 C 253.000 158.970 249.156 154.678 244.458 149.958 L 235.916 141.376 237.817 138.938 C 240.513 135.479 242.932 130.538 244.568 125.148 C 245.683 121.473 245.981 111.866 245.989 79.250 C 245.995 56.563 245.654 38.000 245.231 38.000 C 244.808 38.000 239.745 40.619 233.981 43.821 "/></g>
<g fill="#000000FF" stroke="#000000FF">
<path d="M 38.580 2.040 C 29.844 3.413 20.828 8.042 14.435 14.435 C -5.542 34.411 -2.131 67.259 21.500 82.468 C 30.446 88.226 34.624 89.125 56.000 89.898 C 77.525 90.676 79.276 91.133 84.797 97.422 C 90.222 103.600 91.569 113.946 87.978 121.859 C 86.890 124.257 86.000 126.360 86.000 126.532 C 86.000 127.013 99.850 123.005 105.669 120.840 C 110.381 119.087 110.891 118.589 111.436 115.208 C 113.853 100.215 102.096 80.151 86.661 72.928 C 78.425 69.075 71.613 68.014 55.000 68.000 C 47.575 67.994 39.800 67.517 37.723 66.940 C 29.423 64.635 23.058 55.782 23.028 46.500 C 22.993 35.858 26.789 29.404 35.459 25.367 C 40.044 23.232 41.865 23.019 55.601 23.010 C 71.106 23.000 75.208 23.708 80.339 27.284 C 84.530 30.205 88.744 36.528 89.506 41.037 L 90.176 45.000 100.993 45.000 L 111.810 45.000 111.316 40.750 C 109.828 27.931 103.130 16.777 92.541 9.484 C 83.604 3.329 77.703 1.875 60.000 1.467 C 51.475 1.270 41.836 1.528 38.580 2.040 "/></g>
<g fill="#FF525CFF" stroke="#FF525CFF">
<path d="M 284.500 22.142 C 282.850 22.683 278.238 24.268 274.250 25.664 L 267.000 28.203 267.000 93.101 L 267.000 158.000 323.500 158.000 L 380.000 158.000 380.000 146.000 L 380.000 134.000 335.500 134.000 L 291.000 134.000 291.000 77.500 C 291.000 14.692 291.601 19.813 284.500 22.142 "/></g>
<g fill="#000000FF" stroke="#000000FF">
<path d="M 174.500 1.639 C 156.626 3.618 141.796 16.182 136.418 33.901 C 135.339 37.455 135.019 46.412 135.011 73.337 L 135.000 108.174 142.250 104.224 C 146.238 102.052 150.927 99.437 152.672 98.414 L 155.843 96.553 156.192 68.027 C 156.571 36.929 156.833 35.361 162.589 29.657 C 168.141 24.156 170.324 23.561 186.378 23.172 C 204.212 22.740 208.493 23.282 213.653 26.628 C 218.979 30.081 221.765 34.462 223.146 41.553 C 223.783 44.824 224.410 47.636 224.538 47.802 C 224.666 47.968 229.113 45.718 234.420 42.802 L 244.068 37.500 243.454 34.062 C 241.219 21.562 228.910 8.645 214.408 3.582 C 209.470 1.858 183.804 0.608 174.500 1.639 "/></g>
<g fill="#FF525CFF" stroke="#FF525CFF">
<path d="M 98.000 123.821 C 90.575 126.197 82.025 129.331 79.000 130.784 C 73.969 133.202 72.227 133.460 58.573 133.809 C 42.297 134.225 19.099 132.717 9.301 130.605 L 3.103 129.269 5.653 134.301 C 7.055 137.068 10.621 141.751 13.577 144.708 C 24.208 155.339 36.971 158.731 62.500 157.709 C 78.559 157.067 85.076 155.347 93.541 149.516 C 96.491 147.484 100.520 143.851 102.493 141.443 C 106.850 136.126 111.266 126.775 111.401 122.580 L 111.500 119.500 98.000 123.821 "/></g>
<g fill="#000000FF" stroke="#000000FF">
<path d="M 268.221 13.790 L 268.500 26.581 279.250 23.149 L 290.000 19.718 290.000 10.359 L 290.000 1.000 278.971 1.000 L 267.942 1.000 268.221 13.790 "/></g>
<g fill="#000000FF" stroke="#000000FF">
<path d="M 1.496 117.250 C 1.865 119.588 2.637 123.140 3.211 125.145 C 4.192 128.574 4.586 128.854 9.877 129.876 C 14.732 130.813 31.709 132.968 34.430 132.992 C 34.941 132.996 33.418 131.338 31.044 129.306 C 26.632 125.529 23.061 119.273 23.022 115.250 C 23.001 113.053 22.737 113.000 11.912 113.000 L 0.824 113.000 1.496 117.250 "/></g>
</svg>
