<svg width="65" height="65" viewBox="0 0 65 65" fill="none" xmlns="http://www.w3.org/2000/svg">
<path d="M32.5 0L39.2288 11.7907L51.603 6.20695L50.1163 19.701L63.4093 22.4569L54.275 32.5L63.4093 42.5431L50.1163 45.299L51.603 58.7931L39.2288 53.2093L32.5 65L25.7712 53.2093L13.397 58.7931L14.8837 45.299L1.59066 42.5431L10.725 32.5L1.59066 22.4569L14.8837 19.701L13.397 6.20695L25.7712 11.7907L32.5 0Z" fill="#333333"/>
<path d="M32.8665 41.2386C36.7869 41.2386 39.5909 39.0824 39.5824 36.0994C39.5909 33.9261 38.2102 32.375 35.6449 32.0511V31.9148C37.5966 31.5653 38.9432 30.1847 38.9347 28.2244C38.9432 25.4716 36.5312 23.3068 32.9176 23.3068C29.3381 23.3068 26.6449 25.4034 26.5938 28.4205H30.1307C30.1733 27.0909 31.392 26.2301 32.9006 26.2301C34.392 26.2301 35.3892 27.1335 35.3807 28.446C35.3892 29.8182 34.2216 30.7472 32.5426 30.7472H30.9148V33.4574H32.5426C34.5199 33.4574 35.7557 34.446 35.7472 35.8523C35.7557 37.2415 34.5625 38.196 32.875 38.196C31.2472 38.196 30.0284 37.3438 29.9602 36.0653H26.2443C26.304 39.1165 29.0312 41.2386 32.8665 41.2386Z" fill="white"/>
</svg>
